<?xml version="1.0" encoding="utf-8"?><svg xmlns="http://www.w3.org/2000/svg" xmlns:xlink="http://www.w3.org/1999/xlink"><symbol fill="none" viewBox="0 0 11 18" id="angle-double-right" xmlns="http://www.w3.org/2000/svg"><path d="M5.737 9.299l-4.05 4.078a.406.406 0 01-.583 0l-.245-.25a.429.429 0 010-.597L4.376 9 .863 5.47a.43.43 0 010-.597l.244-.25a.406.406 0 01.584 0l4.05 4.078a.432.432 0 01-.004.598zm4.4-.598l-4.05-4.078a.406.406 0 00-.583 0l-.245.25a.43.43 0 000 .597L8.776 9l-3.513 3.53a.429.429 0 000 .597l.244.25a.406.406 0 00.584 0l4.05-4.078a.432.432 0 00-.004-.598z" fill="#000"/></symbol><symbol viewBox="0 0 18 8" id="arrow-back" xmlns="http://www.w3.org/2000/svg"><path d="M3.3 7.5L.1 4.4c-.1-.2-.1-.6 0-.8L3.3.4c.2-.2.5-.2.7 0 .2.3.2.6 0 .8L1.7 3.5h15.8v1H1.7L4 6.8c.2.2.2.5 0 .7-.2.2-.5.2-.7 0z"/></symbol><symbol fill="none" viewBox="0 0 12 66" id="arrow-down--long--white" xmlns="http://www.w3.org/2000/svg"><path fill-rule="evenodd" clip-rule="evenodd" d="M11.303 60.757L6.53 65.53a.75.75 0 01-1.06 0L.697 60.757a.75.75 0 011.06-1.06l3.493 3.492V0h1.5v63.19l3.493-3.493a.75.75 0 011.06 1.06z" fill="#fff"/></symbol><symbol viewBox="0 0 18 11" id="arrow-expand" xmlns="http://www.w3.org/2000/svg"><path data-name="down" d="M.5 1L9 9.5 17.5 1" fill="none" stroke="#0e0e0e"/></symbol><symbol viewBox="0 0 18 11" id="arrow-expand-white" xmlns="http://www.w3.org/2000/svg"><path d="M.5 1L9 9.5 17.5 1" fill="none" stroke="#fff"/></symbol><symbol viewBox="0 0 18 8" id="arrow-left" xmlns="http://www.w3.org/2000/svg"><path d="M3.3 7.5L.1 4.4c-.1-.2-.1-.6 0-.8L3.3.4c.2-.2.5-.2.7 0 .2.3.2.6 0 .8L1.7 3.5h15.8v1H1.7L4 6.8c.2.2.2.5 0 .7-.2.2-.5.2-.7 0z" fill="#303030"/></symbol><symbol fill="none" viewBox="0 0 38 12" id="arrow-left--long--white" xmlns="http://www.w3.org/2000/svg"><path fill-rule="evenodd" clip-rule="evenodd" d="M5.868 10.928L1.095 6.155a.75.75 0 010-1.06L5.868.322a.75.75 0 011.06 1.06L3.436 4.875h33.689v1.5H3.435l3.493 3.492a.75.75 0 01-1.06 1.061z" fill="#fff"/></symbol><symbol viewBox="0 0 18 8" id="arrow-right" xmlns="http://www.w3.org/2000/svg"><path d="M14.2.5l3.2 3.2c.2.2.2.5 0 .7l-3.2 3.2c-.2.2-.5.2-.7 0-.2-.2-.2-.5 0-.7l2.3-2.3H0v-1h15.8l-2.3-2.3c-.2-.2-.2-.5 0-.7.2-.3.5-.3.7-.1z" fill="#303030"/></symbol><symbol fill="none" viewBox="0 0 16 12" id="arrow-right-blog" xmlns="http://www.w3.org/2000/svg"><path fill-rule="evenodd" clip-rule="evenodd" d="M10.757.697L15.53 5.47a.75.75 0 010 1.06l-4.773 4.773a.75.75 0 01-1.06-1.06l3.492-3.493H0v-1.5h13.19L9.696 1.757a.75.75 0 111.06-1.06z" fill="#203351"/></symbol><symbol fill="none" viewBox="0 0 16 12" id="arrow-right-catalog" xmlns="http://www.w3.org/2000/svg"><path d="M15.53 6.53a.75.75 0 000-1.06L10.757.697a.75.75 0 00-1.06 1.06L13.939 6l-4.242 4.243a.75.75 0 001.06 1.06L15.53 6.53zM0 6.75h15v-1.5H0v1.5z" fill="#203351"/></symbol><symbol fill="none" viewBox="0 0 19 8" id="arrow-right-white" xmlns="http://www.w3.org/2000/svg"><path fill-rule="evenodd" clip-rule="evenodd" d="M15.172.464l3.182 3.182a.5.5 0 010 .708l-3.182 3.182a.5.5 0 11-.708-.708L16.793 4.5H0v-1h16.793l-2.329-2.328a.5.5 0 11.708-.708z" fill="#fff"/></symbol><symbol fill="none" viewBox="0 0 18 11" id="arrow-select" xmlns="http://www.w3.org/2000/svg"><path d="M.5 1L9 9.5 17.5 1" stroke="#888"/></symbol><symbol fill="none" viewBox="0 0 16 28" id="arrow-short-left" xmlns="http://www.w3.org/2000/svg"><path fill-rule="evenodd" clip-rule="evenodd" d="M14.293.293l1.414 1.414L3.414 14l12.293 12.293-1.414 1.414L.586 14 14.293.293z" fill="#303030"/></symbol><symbol fill="none" viewBox="0 0 16 28" id="arrow-short-right" xmlns="http://www.w3.org/2000/svg"><path fill-rule="evenodd" clip-rule="evenodd" d="M1.707 27.707L.293 26.293 12.586 14 .293 1.707 1.707.293 15.414 14 1.707 27.707z" fill="#303030"/></symbol><symbol fill="none" viewBox="0 0 17 12" id="arrow_right" xmlns="http://www.w3.org/2000/svg"><path d="M16.53 6.53a.75.75 0 000-1.06L11.757.697a.75.75 0 00-1.06 1.06L14.939 6l-4.242 4.243a.75.75 0 001.06 1.06L16.53 6.53zM0 6.75h16v-1.5H0v1.5z" fill="#444"/></symbol><symbol viewBox="0 0 32 32" id="as_close" xmlns="http://www.w3.org/2000/svg"><path d="M30.87 1.77l-.64-.64a1 1 0 00-1.41 0L16 13.94 3.18 1.13a1 1 0 00-1.41 0l-.64.64a1 1 0 000 1.41L13.94 16 1.13 28.82a1 1 0 000 1.41l.64.64a1 1 0 001.41 0L16 18.06l12.82 12.82a1 1 0 001.41 0l.65-.65a1 1 0 000-1.41L18.06 16 30.88 3.18a1 1 0 00-.01-1.41z"/></symbol><symbol fill="none" viewBox="0 0 40 40" id="burger" xmlns="http://www.w3.org/2000/svg"><circle cx="20" cy="20" r="20" fill="#B76C4B"/><path fill-rule="evenodd" clip-rule="evenodd" d="M31 13a1 1 0 01-1 1H10a1 1 0 110-2h20a1 1 0 011 1zm0 7a1 1 0 01-1 1H10a1 1 0 110-2h20a1 1 0 011 1zm0 7a1 1 0 01-1 1H10a1 1 0 110-2h20a1 1 0 011 1z" fill="#fff"/></symbol><symbol fill="none" viewBox="0 0 40 40" id="burger--close" xmlns="http://www.w3.org/2000/svg"><circle cx="20" cy="20" r="20" fill="#B76C4B"/><path fill-rule="evenodd" clip-rule="evenodd" d="M28.402 28.402a1 1 0 01-1.414 0l-15.28-15.28a1 1 0 011.413-1.415l15.28 15.28a1 1 0 010 1.415z" fill="#fff"/><path fill-rule="evenodd" clip-rule="evenodd" d="M11.707 28.402a1 1 0 010-1.414l15.28-15.28a1 1 0 011.415 1.413l-15.28 15.28a1 1 0 01-1.415 0z" fill="#fff"/></symbol><symbol id="card" viewBox="0 0 40 40" xml:space="preserve" xmlns="http://www.w3.org/2000/svg"><style>.asst0{fill:#b76c4b}</style><path class="asst0" d="M33.3 7.1V3.3C33.3 1.5 31.8 0 30 0H3.3C1.5 0 0 1.5 0 3.3V18c0 1.7 1.3 3.1 3 3.3l2.5 6.5c.7 1.7 2.6 2.6 4.3 1.9l15.6-6c-1.1 2.8-.8 6 .8 8.6l.4.6v6.5c0 .4.3.7.7.7h12c.4 0 .7-.3.7-.7v-22c0-2.3-.9-4.5-2.6-6.1l-4.1-4.2zm0 3.9l2 5.3c.4 1-.1 2.2-1.1 2.6l-1.2.4c.2-.4.3-.9.3-1.3v-7zm-32 7V3.3c0-1.1.9-2 2-2H30c1.1 0 2 .9 2 2v15l-6.1-6.1c-1.4-1.3-3.6-1.4-4.9 0-1.4 1.3-1.5 3.5-.2 4.9l2.6 2.8h-20c-1.2.1-2.1-.8-2.1-1.9zm8.6 3.3l-4.7 1.8-.7-1.8h5.4zm-.6 7.2c-1 .4-2.2-.1-2.6-1.1l-1.1-2.9 8-3.1h11l.9.9-16.2 6.2zm29.4 10.2H28v-5.3h10.7v5.3zm0-6.7h-11l-.3-.5c-1.6-2.6-1.7-5.9-.2-8.5.1-.3.1-.6-.1-.8l-5.5-6c-.8-.9-.8-2.3.1-3.1.9-.8 2.3-.8 3.1 0l10.6 10.6.9-.9-2.3-2.4.7-.3c1.7-.7 2.6-2.6 1.9-4.3L34.3 10l2.2 2.2c1.4 1.4 2.2 3.2 2.2 5.2V32z"/><path class="asst0" d="M7.6 9.3c1 0 1.7-.8 1.7-1.7V4.4c0-1-.8-1.7-1.7-1.7H4.4c-1 0-1.7.8-1.7 1.7v3.2c0 1 .8 1.7 1.7 1.7h3.2zM4 7.6v-.9h1.3V5.3H4v-.9c0-.2.2-.4.4-.4h3.2c.2 0 .4.2.4.4v.9H6.7v1.3H8v.9c0 .3-.2.5-.4.5H4.4c-.2 0-.4-.2-.4-.4zm-.7 3.7H6v1.3H3.3v-1.3zm0 4H6v1.3H3.3v-1.3zm12 0H18v1.3h-2.7v-1.3zm-8-4H10v1.3H7.3v-1.3zm4 0H14v1.3h-2.7v-1.3zm4 0H18v1.3h-2.7v-1.3zm12.7-8h1.3v2H28v-2zm-2.7 0h1.3v2h-1.3v-2zm-2.6 0H24v2h-1.3v-2zm-2.7 0h1.3v2H20v-2zm9.3 31.4h1.3V36h-1.3v-1.3z"/></symbol><symbol fill="none" viewBox="0 0 27 33" id="cart" xmlns="http://www.w3.org/2000/svg"><path d="M4.575 9.155a.25.25 0 01.25-.248h17.8a.25.25 0 01.25.24c.029.734.062 1.608.097 2.547a572.1 572.1 0 01.245 7.713c.046 2.156.45 5.43.824 8.075.1.71.2 1.385.292 1.993a.452.452 0 01-.446.52H3.727a.451.451 0 01-.448-.503c.061-.533.128-1.122.197-1.748.283-2.552.609-5.75.771-8.248.162-2.5.249-5.655.295-8.164.015-.802.025-1.542.033-2.177zM24.948 32.25a1.768 1.768 0 001.74-2.044c-.429-2.735-1.195-7.97-1.256-10.848-.06-2.833-.247-7.823-.353-10.55a2.244 2.244 0 00-2.246-2.156H4.623c-1.24 0-2.246 1-2.26 2.238-.03 2.58-.11 7.133-.326 10.457-.224 3.445-.77 8.297-1.073 10.869a1.82 1.82 0 001.804 2.034h22.18z" fill="#fff" stroke="#fff" stroke-width=".5"/><path d="M8.834 10.1c-.095-1.384.036-3.096.64-4.528.365-.864.883-1.584 1.582-2.086.686-.494 1.61-.825 2.892-.825 1.282 0 2.21.331 2.904.826.705.505 1.23 1.226 1.602 2.09.612 1.424.76 3.123.68 4.503-.035.61.435 1.17 1.072 1.167a1 1 0 001.004-.909c.128-1.585-.027-3.595-.832-5.467-.469-1.09-1.185-2.128-2.258-2.895C17.035 1.201 15.65.75 13.948.75c-1.702 0-3.085.45-4.166 1.228-1.068.768-1.777 1.808-2.237 2.9-.796 1.886-.887 3.907-.732 5.492a.98.98 0 00.984.875c.622 0 1.078-.55 1.037-1.144z" fill="#fff" stroke="#fff" stroke-width=".5"/></symbol><symbol viewBox="0 0 512 512" id="close" xmlns="http://www.w3.org/2000/svg"><path d="M284.3 256L506.1 34.1c7.8-7.8 7.8-20.5 0-28.3-7.8-7.8-20.5-7.8-28.3 0L256 227.7 34.1 5.9C26.3-2 13.7-2 5.9 5.9s-7.8 20.5 0 28.3L227.7 256 5.9 477.9c-7.8 7.8-7.8 20.5 0 28.3 3.9 3.9 9 5.9 14.1 5.9s10.2-2 14.1-5.9L256 284.3l221.9 221.9c3.9 3.9 9 5.9 14.1 5.9s10.2-2 14.1-5.9c7.8-7.8 7.8-20.5 0-28.3L284.3 256z" fill="#303030"/></symbol><symbol viewBox="0 0 512 512" id="close-white" xmlns="http://www.w3.org/2000/svg"><path d="M284.3 256L506.1 34.1c7.8-7.8 7.8-20.5 0-28.3-7.8-7.8-20.5-7.8-28.3 0L256 227.7 34.1 5.9C26.3-2 13.7-2 5.9 5.9s-7.8 20.5 0 28.3L227.7 256 5.9 477.9c-7.8 7.8-7.8 20.5 0 28.3 3.9 3.9 9 5.9 14.1 5.9s10.2-2 14.1-5.9L256 284.3l221.9 221.9c3.9 3.9 9 5.9 14.1 5.9s10.2-2 14.1-5.9c7.8-7.8 7.8-20.5 0-28.3L284.3 256z" fill="#fff"/></symbol><symbol id="delivery" viewBox="0 0 32 32" xml:space="preserve" xmlns="http://www.w3.org/2000/svg"><style>.awst1{fill:#b76c4b}</style><g opacity=".8"><path class="awst1" d="M30.7 19.5L28 18.2l-.9-5.2H29v-3h-2.9l.9-3.4v-.2c0-.1 0-.1-.1-.2 0-.1-.1-.1-.2-.1 0-.1-.1-.1-.2-.1H26v-.5c0-.3-.1-.6-.3-.9-.2-.3-.5-.4-.8-.5-.1-.6-.4-1.1-.8-1.5s-1-.6-1.6-.6-1.2.2-1.6.6-.8.9-.9 1.5c-.3.1-.6.3-.8.5-.1.3-.2.6-.2.9V6h-.5c-.1 0-.2 0-.2.1-.1 0-.1.1-.2.1 0 .1-.1.1-.1.2v.2l.8 3.4h-2l-1-3H5v3H1v3h2v11H1.5c-.1 0-.3.1-.4.1 0 .1-.1.3-.1.4v2c0 .1.1.3.1.4.1 0 .3.1.4.1H5c.1.8.5 1.6 1.2 2.1s1.5.9 2.3.9 1.7-.3 2.3-.9 1.1-1.3 1.2-2.1h8c.1.8.5 1.6 1.2 2.1.6.6 1.4.9 2.3.9s1.7-.3 2.3-.9c.6-.6 1.1-1.3 1.2-2.1h3.5c.1 0 .3-.1.4-.1.1-.1.1-.2.1-.4V20c0-.1 0-.2-.1-.3l-.2-.2zM3 26H2v-1h1v1zM25.9 7l-.8 3h-1l.8-3h1zm-3.4-4c.3 0 .6.1.9.3s.4.4.5.7h-2.8c.1-.3.3-.5.5-.7.3-.2.6-.3.9-.3zM20 5.5c0-.1.1-.3.1-.4.1 0 .3-.1.4-.1h4c.1 0 .3.1.4.1 0 .1.1.3.1.4V6h-5v-.5zM23.9 7l-.8 3H23V7h.9zM22 7v3h-.1l-.8-3h.9zm-1.9 0l.8 3h-1l-.8-3h1zM10 8h1v1h1V8h1v1h1V8h1.1l.7 2H10V8zM6 8h3v2H6V8zm-4 4v-1h26v1H2zm24.9 6H24v-5h2.1l.8 5zM8.5 29c-.5 0-1-.1-1.4-.4s-.7-.7-.9-1.1C6 27 6 26.5 6 26c.1-.5.3-.9.7-1.3.4-.3.8-.6 1.3-.7s1 0 1.4.1c.5.2.8.5 1.1.9s.4.9.4 1.4c0 .7-.3 1.3-.7 1.8-.4.5-1 .8-1.7.8zM20 26h-8c-.1-.8-.5-1.6-1.2-2.1-.6-.6-1.5-.9-2.3-.9s-1.7.3-2.3.9c-.6.5-1 1.3-1.2 2.1H4V13h19v10c-.7.1-1.4.5-2 1s-.9 1.3-1 2zm3.5 3c-.5 0-1-.1-1.4-.4s-.7-.7-.9-1.1c-.2-.5-.2-1-.2-1.5.1-.5.3-.9.7-1.3.3-.3.8-.6 1.3-.7s1 0 1.4.1c.5.2.8.5 1.1.9.3.4.4.9.4 1.4 0 .7-.3 1.3-.7 1.8-.4.5-1 .8-1.7.8zm6.5-3h-3c-.1-.7-.5-1.4-1-2s-1.2-.9-2-1v-4h3v2.5c0 .1.1.3.1.4.1.1.2.1.4.1H30v4zm0-5h-2v-1.7l2 1v.7z"/><path class="awst1" d="M25 20h1v1h-1v-1zm-3 2.5v-2c0-.1-.1-.3-.1-.4-.1-.1-.2-.1-.4-.1H21v-3h.5c.1 0 .2 0 .2-.1.1 0 .1-.1.2-.2 0-.1.1-.2.1-.2 0-.1 0-.2-.1-.2l-1-2c0-.1-.1-.2-.2-.2s-.2-.1-.3-.1h-14c-.1 0-.2 0-.3.1-.1 0-.1.1-.2.2l-1 2c.1.1.1.1.1.2s0 .2.1.2c0 .1.1.1.2.2 0 .1.1.1.2.1H6v3h-.5c-.1 0-.3.1-.4.1 0 .1-.1.3-.1.4v2c0 .1.1.3.1.4.1 0 .3.1.4.1h16c.1 0 .3-.1.4-.1 0-.1.1-.3.1-.4zM6.8 15h13.4l.5 1H6.3l.5-1zM20 17v3H7v-3h13zm1 5H6v-1h15v1zM8.5 25c-.3 0-.6.1-.8.3-.2.2-.4.4-.6.7-.1.2-.1.5-.1.8.1.3.2.6.4.8.2.2.5.4.8.4.3.1.6 0 .9-.1.3-.1.5-.3.7-.6.2-.2.3-.5.3-.8 0-.4-.2-.8-.4-1.1-.4-.2-.8-.4-1.2-.4zm0 2c-.1 0-.2 0-.3-.1l-.2-.2v-.3c0-.1.1-.2.1-.3.1 0 .2-.1.3-.1h.3c.1 0 .2.1.2.2.1.1.1.2.1.3s-.1.3-.1.4c-.1 0-.3.1-.4.1zm15-2c-.3 0-.6.1-.8.3-.2.2-.4.4-.6.7-.1.2-.1.5-.1.8.1.3.2.6.4.8.2.2.5.4.8.4.3.1.6 0 .9-.1s.5-.3.7-.6c.2-.2.3-.5.3-.8 0-.4-.2-.8-.4-1.1s-.8-.4-1.2-.4zm0 2c-.1 0-.2 0-.3-.1l-.2-.2v-.3c0-.1.1-.2.1-.3.1-.1.2-.1.3-.1h.3c.1 0 .2.1.2.2.1.1.1.2.1.3 0 .1-.1.3-.1.4-.1 0-.3.1-.4.1zm-9-3h1v1h-1v-1zm-2 0h1v1h-1v-1zm4 0h1v1h-1v-1zm2 0h1v1h-1v-1z"/></g></symbol><symbol fill="none" viewBox="0 0 235 103" id="dragin-podpis" xmlns="http://www.w3.org/2000/svg"><path d="M74.282 7.745c-.221.31-.442.62-.62.93-.265.442-.486.929-.752 1.372-.177.354-.354.663-.53 1.018-.488.929-.93 1.814-1.417 2.744.531-.753 1.018-1.505 1.549-2.258.177-.265.398-.575.575-.84-.575.973-1.239 1.902-1.814 2.876l-1.593 2.656c-1.063 1.77-2.125 3.585-3.187 5.355-1.062 1.77-2.036 3.629-3.01 5.444l-1.062 1.991c-.265.531-.487 1.062-.752 1.593-2.302 4.869-4.514 9.781-6.683 14.694-.487-.354-1.018-.664-1.55-1.018-1.105-.664-2.256-1.15-3.407-1.637-1.195-.532-2.478-.93-3.718-1.284-2.655-.797-5.355-1.283-8.054-1.549-2.7-.266-5.4-.088-8.1.266-2.567.354-5.09 1.062-7.48 2.035-2.478 1.018-4.78 2.302-7.036 3.718-4.47 2.877-8.41 6.595-11.596 10.843-.752.974-1.372 2.036-1.947 3.143-.62 1.239-1.195 2.567-1.593 3.939-.709 2.434-.664 5.133.088 7.568.177.62.443 1.195.708 1.726.266.53.664 1.062 1.062 1.549.841 1.018 1.815 1.859 2.877 2.655 1.947 1.46 4.337 2.302 6.727 2.788 1.24.266 2.479.399 3.762.487 1.372.133 2.7.177 4.072.133 2.833-.088 5.71-.575 8.498-1.062 2.7-.443 5.355-1.062 7.966-1.726a78.649 78.649 0 004.603-1.328c-.222.443-.399.885-.62 1.328-.974 2.08-1.991 4.16-2.965 6.24a187.555 187.555 0 01-3.32 6.683c-.044.044-.088.089-.088.133a29.694 29.694 0 00-2.965 4.426 19.67 19.67 0 00-1.063 2.168c-.177.443-.354.841-.53 1.284-.178.487-.31.973-.443 1.505-.177.796.088 1.637.84 2.035.886.487 1.948.177 2.48-.664.398-.619.663-1.283.929-1.947.177-.398.354-.84.575-1.24.354-.84.752-1.68 1.15-2.477.133-.222.222-.487.355-.709a37.41 37.41 0 011.504-2.168 20.154 20.154 0 013.364-3.364c.93-.708 1.947-1.283 3.01-1.77.62-.221 1.239-.398 1.903-.531.442-.044.84-.044 1.239 0 .31.088.664.177.974.265.354.177.708.354 1.062.576.487.398.885.885 1.283 1.372.443.62.841 1.239 1.195 1.903.31.575.62 1.106.93 1.726.22.487.575.973.929 1.372.398.442.93.84 1.549.93.487.088.752.088 1.283 0 .266-.045.487-.134.709-.222.31-.133.62-.266.929-.443.354-.177.664-.487.974-.752.442-.398.796-.885 1.106-1.372.31-.443.531-.885.797-1.372.664-1.195 1.195-2.434 1.682-3.673.973-2.479 1.681-5.09 2.212-7.657a77.01 77.01 0 001.24-8.409c.133-1.328.221-2.656.221-3.983 0-.797 0-1.638-.044-2.434.93-.487 1.859-.974 2.788-1.505 2.213-1.15 4.426-2.346 6.727-3.408-3.23.93-6.462 2.036-9.604 3.187v-.045a30.036 30.036 0 00-.53-3.939 22.722 22.722 0 00-1.152-3.85c-.973-2.479-2.345-4.78-4.116-6.772-.575-.663-1.239-1.283-1.903-1.903 1.063-2.39 2.169-4.78 3.275-7.17 1.107-2.345 2.17-4.735 3.276-7.08.354-.753.663-1.505 1.017-2.258l.664-1.328a860.822 860.822 0 005.4-11.108c.575-1.24 1.195-2.479 1.77-3.718.354-.752.708-1.46 1.062-2.213.354-.664.664-1.372.93-2.08a8.75 8.75 0 00.354-1.15c.088-.31.044-.664.044-.974 0-.266-.221-.399-.443-.399-.31-.088-.442 0-.53.133zm-38.946 35.54c1.46-.045 2.92.088 4.381.265 3.187.442 6.373 1.283 9.338 2.522 1.594.709 3.054 1.505 4.426 2.523-.708 1.593-1.416 3.231-2.169 4.824a731.778 731.778 0 01-4.735 10.312c-1.195 2.567-2.346 5.178-3.54 7.745a139.093 139.093 0 01-9.56 2.744c-3.143.753-6.373 1.328-9.56 1.77-1.726.222-3.452.399-5.223.399-1.504 0-3.053-.133-4.558-.31-1.505-.221-3.01-.575-4.426-1.106-.93-.443-1.814-.93-2.655-1.55a11.74 11.74 0 01-1.682-1.637c-.31-.398-.531-.84-.752-1.283a12.037 12.037 0 01-.576-2.169 10.393 10.393 0 010-2.346c.177-1.15.531-2.212.974-3.275.354-.796.708-1.549 1.15-2.257a22.429 22.429 0 011.594-2.39c2.124-2.7 4.603-5.134 7.347-7.302a44.753 44.753 0 018.763-5.178 30.095 30.095 0 017.346-1.992 44.008 44.008 0 014.117-.31zm11.95 25.713l4.779-10.356c1.24-2.7 2.478-5.4 3.673-8.1.487.487.93.974 1.372 1.505 1.018 1.417 1.903 2.877 2.611 4.47.31.797.62 1.638.841 2.479.222.84.355 1.681.487 2.522a42.17 42.17 0 01.266 3.32c-2.611.973-5.223 1.947-7.878 2.92l-4.249 1.594-2.523.93c.222-.443.443-.841.62-1.284zm.574 4.913c.709-.31 1.46-.576 2.17-.93.884-.442 1.814-.885 2.699-1.328 1.726-.84 3.452-1.681 5.178-2.567l3.452-1.858v.088c-.044 2.169-.266 4.382-.531 6.55a69.318 69.318 0 01-1.284 6.728c-.53 2.168-1.194 4.337-2.035 6.417-.31.708-.664 1.416-1.018 2.124-.31.62-.664 1.195-1.018 1.77-.177.178-.31.355-.487.532-.044-.045-.044-.089-.089-.133l-.398-.664c-.177-.266-.354-.575-.575-.84-.753-1.107-1.505-2.17-2.39-3.187a8.202 8.202 0 00-4.337-2.523c-.797-.177-1.638-.177-2.435-.089-.929.133-1.858.31-2.744.664-.84.31-1.637.753-2.434 1.195.974-2.08 1.947-4.204 2.965-6.284.664-1.417 1.328-2.877 1.992-4.293 1.062-.443 2.213-.93 3.32-1.372zm13.012-.487c0 .088-.044.177-.044.265 0-.088.044-.177.044-.265zM23.74 76.035c-.089 0-.133 0-.221.044.088-.044.132-.044.22-.044zm30.626 15.579h.133c-.044.044-.088 0-.133 0zm20.004-8.719c0 .973.842 1.814 1.815 1.814.974 0 1.815-.84 1.815-1.814 0-.974-.84-1.815-1.815-1.815-1.017.044-1.814.841-1.814 1.815z" fill="#fff"/><path d="M136.111.177c-.178.31-.399.575-.576.885-.265.398-.442.841-.664 1.284-.177.31-.31.62-.487.93-.442.84-.84 1.68-1.283 2.522.487-.708.929-1.416 1.416-2.08l.531-.797c-.531.885-1.106 1.77-1.637 2.655-.487.797-.974 1.638-1.461 2.435-.973 1.637-1.947 3.275-2.921 4.957-.973 1.637-1.859 3.319-2.788 5-.31.62-.664 1.196-.974 1.815-.265.487-.442.974-.708 1.46-2.124 4.47-4.116 8.985-6.152 13.5-.486-.31-.929-.62-1.416-.93-1.018-.575-2.08-1.062-3.142-1.505-1.107-.487-2.257-.84-3.408-1.195a38.694 38.694 0 00-7.435-1.416c-2.479-.221-4.957-.088-7.436.265-2.39.31-4.691.974-6.904 1.86-2.257.929-4.426 2.124-6.462 3.407a41.557 41.557 0 00-10.666 9.958c-.663.93-1.283 1.859-1.77 2.877-.575 1.15-1.106 2.346-1.46 3.585-.664 2.257-.62 4.735.088 6.993.177.53.398 1.106.664 1.593.266.487.62.974.974 1.416.752.974 1.681 1.726 2.655 2.434 1.815 1.328 3.983 2.125 6.196 2.567a30.63 30.63 0 003.452.443c1.24.133 2.479.133 3.718.133 2.611-.089 5.222-.531 7.834-.974 2.478-.398 4.912-.974 7.346-1.593 1.417-.399 2.833-.797 4.249-1.24-.177.399-.354.797-.575 1.24-.93 1.903-1.815 3.806-2.744 5.753a159.691 159.691 0 01-3.054 6.152c-.044.044-.044.088-.089.133-1.017 1.283-1.947 2.611-2.744 4.072-.354.663-.708 1.327-.973 1.991-.177.398-.354.797-.487 1.195-.177.443-.31.93-.398 1.372-.177.752.088 1.505.752 1.859.797.487 1.815.177 2.257-.576.354-.575.576-1.194.841-1.814.177-.398.354-.752.531-1.15.354-.753.664-1.55 1.018-2.302.089-.222.221-.443.31-.664.443-.664.885-1.372 1.372-1.992a20.472 20.472 0 013.098-3.098 15.44 15.44 0 012.744-1.637c.575-.221 1.151-.354 1.77-.487a5.012 5.012 0 011.151 0c.31.044.575.133.885.266.354.177.664.354.974.53.442.399.796.842 1.15 1.284.399.575.753 1.15 1.107 1.77.31.532.575 1.018.841 1.55.221.442.531.929.841 1.283.354.442.841.752 1.416.84.443.045.708.09 1.151 0 .221-.043.442-.088.664-.176.309-.133.575-.221.84-.399.31-.177.62-.442.886-.708.398-.354.708-.84 1.018-1.283.265-.398.486-.841.752-1.24.575-1.106 1.106-2.212 1.549-3.407.885-2.257 1.549-4.647 2.036-7.037.531-2.567.885-5.134 1.15-7.745.133-1.24.178-2.434.222-3.674 0-.752 0-1.505-.044-2.257.84-.442 1.726-.93 2.566-1.372 2.036-1.062 4.072-2.168 6.197-3.142-2.966.885-5.931 1.903-8.852 2.92v-.043a33.93 33.93 0 00-.487-3.63 17.077 17.077 0 00-1.062-3.54c-.929-2.302-2.169-4.382-3.762-6.24-.531-.62-1.151-1.196-1.77-1.727 1.018-2.212 1.991-4.425 3.009-6.594 1.018-2.169 1.992-4.337 3.01-6.506.31-.708.619-1.372.929-2.08.177-.443.399-.84.62-1.24 1.682-3.407 3.319-6.815 4.957-10.179.531-1.15 1.106-2.257 1.637-3.407.31-.664.664-1.372.974-2.036.31-.62.62-1.284.841-1.903.133-.354.221-.708.31-1.063.088-.31.044-.575.044-.885 0-.265-.177-.398-.398-.398-.133 0-.266.089-.354.177zm-35.805 32.706c1.328 0 2.7.09 4.027.266 2.921.443 5.842 1.195 8.586 2.301 1.461.62 2.789 1.417 4.072 2.302-.664 1.46-1.328 2.965-1.991 4.426-1.417 3.186-2.877 6.329-4.338 9.515a521.022 521.022 0 00-3.231 7.126 99.03 99.03 0 01-8.763 2.522c-2.92.708-5.842 1.195-8.807 1.594a34.737 34.737 0 01-4.78.354c-1.416 0-2.832-.089-4.204-.266-1.372-.221-2.744-.531-4.072-1.018a14.599 14.599 0 01-2.434-1.416 9.93 9.93 0 01-1.55-1.505 10.617 10.617 0 01-.707-1.195 14.632 14.632 0 01-.531-1.991 8.888 8.888 0 010-2.169c.177-1.062.487-2.036.885-3.01a18.4 18.4 0 011.062-2.08c.443-.752.93-1.504 1.46-2.213 1.948-2.478 4.25-4.735 6.728-6.683a37.734 37.734 0 018.055-4.735 29.776 29.776 0 016.727-1.859 54.981 54.981 0 013.806-.266zm10.976 23.634c1.46-3.186 2.921-6.329 4.381-9.515a541.484 541.484 0 003.364-7.436c.443.443.841.886 1.239 1.372.974 1.284 1.726 2.656 2.39 4.116.31.753.575 1.505.753 2.258.221.752.354 1.549.442 2.301.133 1.018.221 2.036.266 3.054-2.435.885-4.824 1.77-7.214 2.7-1.284.486-2.612.973-3.895 1.46-.752.31-1.549.575-2.301.84.221-.353.398-.752.575-1.15zm.531 4.514a38.19 38.19 0 001.992-.84c.84-.399 1.681-.797 2.478-1.195 1.593-.797 3.187-1.55 4.736-2.346 1.062-.575 2.124-1.106 3.186-1.682v.044c0 1.992-.221 4.028-.487 6.02-.309 2.08-.664 4.16-1.195 6.196a45.362 45.362 0 01-1.858 5.886c-.31.664-.62 1.283-.93 1.947-.31.576-.575 1.107-.974 1.593-.132.178-.309.31-.442.487-.044-.044-.044-.088-.089-.088-.132-.221-.221-.398-.354-.62l-.531-.796a28.104 28.104 0 00-2.213-2.921c-1.062-1.151-2.478-1.992-3.983-2.302-.752-.177-1.505-.177-2.257-.088-.885.088-1.682.31-2.523.62a12.97 12.97 0 00-2.213 1.106c.886-1.948 1.815-3.85 2.7-5.798.62-1.328 1.239-2.656 1.815-3.983 1.062-.399 2.124-.797 3.142-1.24zm11.95-.442c0 .089-.045.177-.045.266.045-.089.045-.177.045-.266zM89.64 63.023c-.044 0-.133 0-.177.044.044-.044.088-.044.177-.044zm28.148 14.295h.133c-.045.045-.089.045-.133 0z" fill="#fff"/><path d="M125.577 53.95a.7.7 0 00.708.708c.399 0 .708-.31.708-.708a.699.699 0 00-.708-.708.7.7 0 00-.708.708zm27.219-35.937c-.177.354-.31.752-.487 1.15l-.266.664c0-.044.045-.044.045-.088-.399.93-.841 1.903-1.24 2.832a185.596 185.596 0 00-1.903 4.338c-.265.62-.531 1.239-.796 1.814-.354.93-.708 1.815-1.063 2.744a669.837 669.837 0 00-3.23 8.498c-.487 1.283-.886 2.567-1.328 3.85-1.416 4.293-2.744 8.586-4.116 12.88-.929 2.876-1.815 5.753-2.744 8.63-.487 1.504-.929 3.009-1.416 4.558-.797 2.434-1.549 4.913-2.302 7.347-.31.93-.619 1.903-.929 2.832-.398 1.24-.797 2.523-1.239 3.762l-1.726 5.311a89.06 89.06 0 00-1.018 3.231c-.354 1.062-.664 2.169-1.063 3.186.487-1.106.93-2.212 1.372-3.319l1.328-3.32c.708-1.77 1.416-3.54 2.125-5.354.796-2.08 1.637-4.16 2.434-6.285a558.95 558.95 0 002.832-7.834c1.549-4.248 2.921-8.586 4.338-12.879 1.46-4.381 2.921-8.718 4.337-13.1.221-.62.398-1.24.619-1.903.222-.664.443-1.283.664-1.903l2.921-8.763c.222-.708.443-1.372.664-2.08a3.83 3.83 0 00.221-.664c.222-.62.443-1.195.62-1.815.531-1.46 1.018-2.92 1.549-4.381.177-.443.31-.93.487-1.372l.797-2.523c.044-.177-.133-.31-.266-.31-.089.133-.177.177-.221.266z" fill="#fff"/><path d="M162.223 39.7c-1.018.22-1.903.84-2.656 1.548-.708.664-1.239 1.55-1.726 2.434-.885 1.682-1.416 3.541-1.328 5.444a1.978 1.978 0 00-1.416-.133c-.531.133-.929.487-1.239.974-.133.221-.266.398-.398.575-.266.31-.532.664-.797.974-.221.266-.354.443-.487.708-.088.177-.177.399-.265.576-.443.442-.93.885-1.461 1.283-1.106.841-2.301 1.638-3.541 2.257-.398.133-.752.221-1.15.31h-.399c-.044 0-.044-.044-.088-.044-.044-.487 0-.974.088-1.46.177-1.063.354-2.125.576-3.232.088-.486.177-.973.31-1.46.088-.487.177-1.018.265-1.505.044-.575 0-1.15-.044-1.726-.044-.442-.133-.84-.487-1.15a1.734 1.734 0 00-1.593-.443 5.188 5.188 0 00-1.062.398 6.527 6.527 0 01-.576.398c-.221.222-.442.443-.664.709-.309.354-.619.663-.929.973-.575.576-1.151 1.15-1.682 1.726a106.853 106.853 0 00-3.718 4.072c-1.106 1.24-2.124 2.611-3.142 3.939-.354.487-.708.974-1.062 1.505-.62.93-1.284 1.859-1.859 2.832.708-.708 1.416-1.416 2.169-2.124.487-.487.929-.974 1.46-1.416 1.151-1.018 2.257-2.125 3.408-3.098 1.239-1.063 2.479-2.17 3.762-3.231a68.063 68.063 0 012.036-1.682v.088c-.133.576-.221 1.151-.354 1.727-.133.752-.31 1.46-.398 2.212-.089.62-.222 1.24-.178 1.86 0 .265.045.53.089.796.044.398.133.708.31 1.062.531 1.062 1.637 1.815 2.788 1.992.266.044.575.088.841.088.398 0 .797-.088 1.195-.177.62-.088 1.195-.354 1.77-.62.531-.22 1.062-.575 1.549-.885.531-.354 1.062-.752 1.594-1.15.929-.708 1.814-1.46 2.611-2.302a4.815 4.815 0 002.124.93c.531.088 1.018.133 1.549.044a9.181 9.181 0 001.859-.354c1.018-.31 2.036-.797 2.965-1.328.974-.53 1.859-1.195 2.7-1.903.752-.62 1.46-1.328 2.08-2.08.841-.974 1.593-2.036 2.169-3.187.221-.442.442-.885.575-1.372l.133-.929c0-.398-.044-.797-.089-1.195-.088-.266-.221-.531-.309-.797-.089-.177-.222-.354-.31-.53-.354-.532-.797-.974-1.284-1.373-.841-.708-1.814-1.195-2.832-1.549-.531-.177-1.107-.221-1.638-.265h-.221c-.62.088-1.107.177-1.593.265zm.885 3.097c.265.045.487.133.752.222.266.132.531.31.797.486.354.31.664.62.973.93.089.177.222.31.31.487a19.532 19.532 0 01-1.283 2.036c-.885 1.15-1.859 2.212-2.965 3.142-.841.62-1.727 1.15-2.7 1.593-.443.177-.885.31-1.372.399h-.089c.045-.178.089-.31.133-.487.266-.886-.133-1.86-.974-2.346 0 0-.044 0-.044-.044.089-.487.266-.974.443-1.46.354-.709.752-1.329 1.195-1.992.575-.753 1.239-1.46 1.991-2.036.399-.266.797-.531 1.284-.753.221-.088.442-.132.664-.177a2.97 2.97 0 01.885 0zm2.788 1.86c.044.043.044.132.089.176a.331.331 0 01-.089-.177zM145.183 56.34v.089c.045 0 .045-.044 0-.089zm-.177.044l.045.045s-.045 0-.045-.044zm.31.355c.044.044.089.044.089.088 0-.044-.045-.044-.089-.088zm.221 0c.045 0 .133 0 .177.044-.044 0-.088 0-.177-.044zm0 .088s.045 0 0 0c.045 0 0 0 0 0z" fill="#fff"/><path d="M168.02 43.638c-.575.974-1.15 1.948-1.637 3.01-.221.487-.443.973-.664 1.505-.133.31-.266.62-.354.929a1.791 1.791 0 00-.044.84c.044.266.088.532.265.753.221.399.753.62 1.195.753.62.177 1.239.132 1.859.044.266-.044.531-.133.797-.221.354-.089.664-.222.973-.354.708-.31 1.328-.664 1.948-1.063.708-.442 1.372-.973 2.036-1.505.265-.22.531-.398.796-.663.443-.399.841-.885 1.195-1.372-.133.132-.265.265-.442.354-.841.575-1.815.973-2.744 1.372.044 0 .088-.045.132-.045-.221.089-.487.222-.708.31h-.044c-.044 0-.089.045-.089.045h.045c-1.417.575-2.921 1.15-4.426 1.416h-.752a.817.817 0 01-.31-.089v-.177c.265-1.991.664-3.939.973-5.842zm-1.106 5.62v.045-.044zm0 .267c0 .044 0 .044 0 0 0 .044 0 .044 0 0 0 .044 0 .044 0 0zm0 .044c.044 0 .044.044.088.044-.044 0-.044 0-.088-.044zm0 .088s0 .045 0 0c0 .045 0 0 0 0zm.044.045c0 .044.044.088.044.132 0-.044-.044-.088-.044-.133zm5.444-1.461s.044 0 .044-.044c0 0 0 .044-.044.044z" fill="#fff"/><path d="M182.448 31.467c-.132.045-.309.133-.442.177-.133.089-.31.222-.443.31-.265.221-.575.443-.841.664-.885.752-1.681 1.593-2.434 2.434-.752.797-1.416 1.593-2.124 2.39-.62.708-1.195 1.46-1.77 2.213a103.336 103.336 0 00-2.612 3.54c1.903-1.416 3.806-2.876 5.71-4.248.84-.62 1.726-1.284 2.567-1.903.354-.221.663-.487 1.017-.708-.309.796-.619 1.593-.929 2.345-.31.753-.575 1.505-.885 2.258-.31.84-.62 1.637-.93 2.478l-.398 1.062a5.814 5.814 0 01-.31.797c-.088.31-.132.62-.177.93 0 .53.177.884.399 1.327.221.354.486.62.841.84.354.222.752.31 1.15.31.841 0 1.549-.442 1.992-1.15.841-1.372 1.549-2.833 2.301-4.249a31.66 31.66 0 011.372-2.301v.354c0 .53.177 1.062.487 1.46.31.399.62.708 1.107.841.442.133 1.017.089 1.416-.177.398-.265.841-.575 1.239-.885.354-.266.664-.664.929-1.018.31-.398.664-.797.974-1.195l.752-.93c.532-.663 1.018-1.371 1.638-1.902.044-.045.088-.045.133-.089h.044c.044 0 .044.044.089.044.132.133.265.266.398.443-.044-.044-.089-.133-.133-.177.089.133.177.221.266.31.132.177.309.265.486.398.443.31 1.018.177 1.505.044.531-.177 1.018-.486 1.461-.752a9.526 9.526 0 001.46-1.195c.753-.752 1.461-1.505 2.125-2.346-.487.354-.974.664-1.461 1.018-.221.133-.442.31-.664.487a7.003 7.003 0 01-1.593.885c-.531.221-1.062.354-1.593.487h-.266c-.177-.354-.354-.752-.619-1.062a2.687 2.687 0 00-1.24-.708c-1.15-.266-2.168.708-3.009 1.372-.797.62-1.594 1.328-2.39 2.036 0-.045-.044-.089-.044-.133-.177-.399-.31-.753-.532-1.15-.177-.31-.398-.576-.619-.842-.044-.044-.133-.088-.177-.133-.266-.265-.531-.398-.885-.53-.399-.09-.753-.178-1.151-.133h-.044v-.089c.088-.752.177-1.505 0-2.213-.177-.708-.531-1.46-1.195-1.859a2.67 2.67 0 00-1.284-.354c-.177.044-.442.089-.664.177zm11.684 5.93s.045 0 .045.045c0-.044-.045-.044-.045-.044zm-4.779 4.117z" fill="#fff"/><path d="M233.965 18.5a5.69 5.69 0 00-.664.442c-.62.443-1.24.886-1.903 1.284-.93.575-1.815 1.15-2.789 1.593a2.453 2.453 0 01-.531.177c-.133-.398-.442-.708-.796-.93 0 0-.045 0-.045-.044-.531-.31-1.239-.31-1.814 0-.31.177-.576.443-.841.664-.221.177-.398.354-.62.531a.775.775 0 00-.221.177c-.797.62-1.638 1.195-2.478 1.77-.841.576-1.682 1.151-2.567 1.682-1.151.664-2.346 1.195-3.541 1.727-.266.088-.487.177-.752.265.088-.265.177-.62.177-.885 0-.443-.177-.797-.354-1.195-.178-.443-.709-.797-1.151-.885a2.182 2.182 0 00-1.505.177c-.266.133-.531.31-.752.531a4.191 4.191 0 00-.664.885c-.31.487-.576 1.062-.664 1.638-.044.044-.089.132-.177.177-.354.354-.708.708-1.018 1.062-.664.708-1.416 1.328-2.213 1.947-.487.354-1.018.708-1.505 1.018-.486.31-1.018.531-1.549.752a4.335 4.335 0 01-.708.222h-.133v-.089a3.288 3.288 0 010-.93c.133-.928.31-1.858.62-2.743.177-.398.354-.708.62-1.062l.044-.044c.088-.089.133-.178.221-.222.044 0 .089-.044.089-.044h.088s.044 0 .044.044 0 .089.045.089c0 .752 0 1.46-.045 2.213.045-.532.133-1.063.177-1.594 0-.177.045-.31.045-.442.044-.266.088-.487-.177-.62-.266-.133-.531 0-.708.133a4.796 4.796 0 00-1.195 1.46c-.354.576-.62 1.284-.886 1.903a7.82 7.82 0 00-.531 1.417 3.436 3.436 0 00-.088.664c0 .22 0 .398.044.62.044.176.221.442.354.575l.531.398c.177.133.443.177.664.221a4.27 4.27 0 001.062 0 20.605 20.605 0 001.594-.354c.663-.177 1.283-.487 1.903-.752 1.106-.487 2.168-1.151 3.186-1.903.31-.222.62-.443.93-.708.309.22.664.398 1.018.53.354.133.752.222 1.15.266.753.044 1.505-.133 2.213-.31.841-.22 1.594-.575 2.39-.93l1.992-.928c.708-.355 1.327-.797 1.991-1.24 1.328-.93 2.523-1.991 3.718-3.053.266-.222.487-.443.752-.664.133.044.31.088.487.132.576.089 1.107.045 1.682-.088.398-.089.797-.31 1.151-.531.442-.266.841-.576 1.195-.841.442-.354.841-.708 1.239-1.107.62-.62 1.239-1.195 1.814-1.858 0 .22-.044.398-.044.62-.044.663-.044 1.327-.044 1.99.266-.663.487-1.327.752-1.99.133-.31.222-.576.354-.886.177-.531.443-1.018.354-1.549-.044-.442-.354-.708-.708-.708-.044.044-.177.044-.309.133zm-9.604 3.452l-.133.133.133-.133zm2.876.044c.045 0 .089.044.133.044-.044 0-.088 0-.133-.044zm-3.496.398c-.089.089-.177.133-.266.222.089-.045.177-.133.266-.222zm-10.533 5.665l.044.045-.044-.045zm-11.994 3.453zm1.018 1.548zm.132.266h.177c-.088.044-.132.044-.177 0z" fill="#fff"/></symbol><symbol fill="none" viewBox="0 0 24 24" id="facebook--white" xmlns="http://www.w3.org/2000/svg"><path d="M21.188 0H2.813A2.816 2.816 0 000 2.813v18.375A2.816 2.816 0 002.813 24h18.375A2.816 2.816 0 0024 21.187V2.813A2.816 2.816 0 0021.187 0zm.937 21.188c0 .516-.42.937-.938.937h-5.343v-7.64h2.896l.479-2.907h-3.375V9.563c0-.796.61-1.407 1.406-1.407h1.922V5.25H17.25a4.312 4.312 0 00-4.312 4.32v2.008h-2.813v2.906h2.813v7.641H2.813a.939.939 0 01-.937-.938V2.813c0-.516.42-.937.938-.937h18.375c.516 0 .937.42.937.938v18.375z" fill="#fff"/></symbol><symbol fill="none" viewBox="0 0 52 52" id="fresh" xmlns="http://www.w3.org/2000/svg"><g clip-path="url(#azclip0)"><path d="M10.773 37.473a146.53 146.53 0 0115.706-.827 146 146 0 0116.333.896 1.127 1.127 0 01-.253 2.24c-5.18-.585-10.59-.882-16.08-.882-5.27 0-10.473.274-15.463.814a1.127 1.127 0 01-.243-2.24zm13.58-11.696a1.124 1.124 0 001.59-.1 1.127 1.127 0 00-.1-1.59c-2.173-1.918-1.713-5.808.15-8.006 1.279-1.509 2.03-3.56 2.059-5.626.032-2.227-.753-4.16-2.208-5.444a1.127 1.127 0 10-1.492 1.69c1.952 1.722 1.914 5.572-.08 7.923-2.541 3-3.134 8.317.08 11.153zm7.08-10.067a1.127 1.127 0 10-.28 2.236c3.358.422 6.165 1.362 8.457 2.658l-3.53 3.53a1.127 1.127 0 101.594 1.595l3.863-3.864a16.13 16.13 0 011.86 1.635l-7.038 7.039a1.127 1.127 0 001.593 1.594l6.903-6.903c.552.762 1.022 1.56 1.412 2.381L43.05 30.83a1.127 1.127 0 101.594 1.594l2.5-2.5c.497 1.724.68 3.5.572 5.237-.276 4.402-2.633 8.857-6.605 8.857H11.848c-3.922 0-5.89-3.673-6.422-7.11-.975-6.286 2.151-13.95 9.918-17.19-.206 2.24.415 4.517 2.165 6.06a1.127 1.127 0 001.49-1.69c-2.173-1.918-1.713-5.808.15-8.006 1.279-1.509 2.03-3.56 2.059-5.626.032-2.227-.753-4.16-2.208-5.444a1.127 1.127 0 10-1.492 1.69c1.952 1.722 1.914 5.572-.079 7.923a8.838 8.838 0 00-1.452 2.454C6.04 20.35 2.023 29.675 3.198 37.252c.85 5.479 4.245 9.02 8.65 9.02H41.11c4.733 0 8.457-4.614 8.855-10.97.533-8.526-4.99-17.89-18.532-19.592z" fill="#303030"/></g><defs><clipPath id="azclip0"><path fill="#fff" transform="translate(3 2)" d="M0 0h47v47H0z"/></clipPath></defs></symbol><symbol fill="none" viewBox="0 0 52 52" id="hot" xmlns="http://www.w3.org/2000/svg"><path d="M47.174 38.312a.703.703 0 10-.91 1.072c1.522 1.29 2.328 2.735 2.33 4.178.001.968-.346 1.787-1.061 2.502-1.197 1.197-3.423 2.088-6.618 2.65-2.868.503-6.46.748-10.983.739-6.984-.01-11.911-.614-14.994-1.843a49.507 49.507 0 003.82-3.049c.413.493 1.004.82 1.667.886a2.518 2.518 0 002.748-2.264c.089-.926.09-1.859.007-2.777a98.05 98.05 0 003.348-3.497 9.622 9.622 0 011.155 3.034c.174.896.217 1.824.128 2.758a2.534 2.534 0 002.258 2.762 2.505 2.505 0 002.737-2.267c.136-1.416.07-2.832-.196-4.21a14.613 14.613 0 00-1.506-4.184c1.35.042 2.67.152 3.945.327 1.174 1.488 1.898 3.107 2.15 4.819a9.63 9.63 0 01.004 2.76 2.533 2.533 0 002.128 2.86 2.513 2.513 0 002.84-2.139c.2-1.41.197-2.829-.007-4.214a14.436 14.436 0 00-.591-2.466c.7.268 1.366.562 1.993.881a.704.704 0 00.638-1.253c-3.864-1.966-9.206-3.05-14.696-2.999.378-.49.73-.968 1.057-1.434 2.06-2.938 3.06-5.345 3.06-7.36 0-1.385-.481-2.569-1.431-3.516-1.989-1.983-5.355-2.296-9.478-.88-3.956 1.357-8.193 4.159-11.933 7.888C5.366 33.479 2 39.823 2 44.633c0 1.994.607 3.654 1.756 4.8.953.95 2.125 1.425 3.507 1.425 1.462 0 3.16-.532 5.082-1.596.394-.219.799-.46 1.214-.723 3.206 1.55 8.57 2.31 16.371 2.32 4.46.006 8.344-.254 11.228-.76 3.534-.622 5.944-1.616 7.369-3.04.98-.98 1.475-2.157 1.473-3.5-.002-1.867-.98-3.682-2.826-5.247zm-7.332-2.155c.453 1.055.767 2.15.93 3.263.186 1.252.188 2.535.007 3.813a1.099 1.099 0 01-1.245.944 1.124 1.124 0 01-.939-1.272c.15-1.062.149-2.126-.004-3.163-.222-1.504-.759-2.94-1.597-4.29.987.195 1.94.43 2.848.705zm-18.069 6.891a1.1 1.1 0 01-1.964.577 91.187 91.187 0 002.025-1.899c.001.44-.018.882-.06 1.322zm9.456-3.796c.241 1.246.3 2.528.177 3.81a1.102 1.102 0 01-1.2 1.001 1.123 1.123 0 01-.995-1.228 11.084 11.084 0 00-.147-3.16 11.103 11.103 0 00-1.559-3.864c.295-.339.579-.672.852-.999.368-.014.74-.024 1.113-.028a13.336 13.336 0 011.76 4.468zM19.78 23.017a13.16 13.16 0 012.963 1.649 13.33 13.33 0 012.7 2.691c.347.46.292 1.096-.127 1.478a1.126 1.126 0 01-1.648-.166 11.05 11.05 0 00-2.24-2.233 11.152 11.152 0 00-4.16-1.903 29.794 29.794 0 012.513-1.516zM5.984 36.57c1.098.38 2.13.892 3.071 1.528a13.334 13.334 0 012.82 2.568 1.099 1.099 0 01-.062 1.484 1.125 1.125 0 01-1.652-.092 11.06 11.06 0 00-2.337-2.13 10.945 10.945 0 00-2.86-1.367c.3-.657.641-1.322 1.02-1.99zm5.681 11.461c-3.168 1.755-5.43 1.887-6.915.406-.891-.889-1.343-2.168-1.343-3.804 0-1.437.355-3.06 1.01-4.77a9.58 9.58 0 012.62 1.23 9.652 9.652 0 012.04 1.86c.942 1.143 2.686 1.233 3.73.193a2.499 2.499 0 00.152-3.375 14.735 14.735 0 00-3.117-2.838 14.528 14.528 0 00-3.12-1.591 34.07 34.07 0 011.92-2.729c1.437.081 3.403.453 5.216 1.678a9.645 9.645 0 012.04 1.86 2.531 2.531 0 003.545.359 2.51 2.51 0 00.337-3.541 14.938 14.938 0 00-1.84-1.869.703.703 0 00-.911 1.072 13.512 13.512 0 011.664 1.69c.393.477.33 1.173-.142 1.558a1.122 1.122 0 01-1.571-.165 11.052 11.052 0 00-2.338-2.13c-1.424-.963-3.108-1.582-4.932-1.823a38.291 38.291 0 011.761-1.923c1.043.248 2.039.608 2.966 1.074a.704.704 0 00.631-1.257 14.866 14.866 0 00-2.43-.959 37.776 37.776 0 013.024-2.56c1.88.223 3.537.856 4.926 1.887a9.65 9.65 0 011.954 1.95c.89 1.184 2.63 1.35 3.718.36a2.497 2.497 0 00.305-3.363 14.729 14.729 0 00-2.985-2.975 14.44 14.44 0 00-2.162-1.326 21.5 21.5 0 011.753-.693c1.56-.535 2.98-.801 4.217-.801 1.611 0 2.914.45 3.812 1.347.686.683 1.019 1.508 1.019 2.52 0 1.692-.944 3.897-2.806 6.553-.93 1.327-2.1 2.877-3.302 4.129-4.19 4.36-9.264 9.894-14.448 12.765z" fill="#303030"/><path fill-rule="evenodd" clip-rule="evenodd" d="M22.088 4.329c.246-1.219.967-2.241 1.663-2.928.23-.226.601-.167.778.102a.593.593 0 01-.097.744c-.586.577-1.16 1.409-1.346 2.33a2.982 2.982 0 00.152 1.723c.241.608.716 1.276 1.563 1.958.95.766 1.562 1.558 1.894 2.362.336.812.372 1.603.215 2.324-.248 1.142-.97 2.069-1.663 2.682-.243.214-.611.132-.773-.149a.603.603 0 01.143-.745c.572-.507 1.12-1.236 1.299-2.054a2.6 2.6 0 00-.15-1.586c-.24-.578-.715-1.23-1.567-1.916-.954-.77-1.567-1.584-1.898-2.42a4.23 4.23 0 01-.213-2.427zm5.017 0c.308-1.27 1.233-2.325 2.099-3.01a.547.547 0 01.769.105c.21.266.147.653-.112.871-.683.575-1.34 1.386-1.558 2.282a2.52 2.52 0 00.183 1.723c.289.608.859 1.276 1.875 1.958 1.14.766 1.874 1.558 2.273 2.362.404.812.447 1.603.259 2.324-.313 1.194-1.244 2.153-2.11 2.764a.543.543 0 01-.76-.152c-.19-.277-.104-.656.165-.859.67-.505 1.302-1.22 1.511-2.019.127-.485.103-1.015-.18-1.586-.288-.578-.858-1.23-1.88-1.916-1.145-.77-1.88-1.584-2.277-2.42-.4-.842-.44-1.67-.257-2.427zm5.983 0c.246-1.219.967-2.241 1.663-2.928.23-.226.602-.167.778.102a.593.593 0 01-.097.744c-.586.577-1.16 1.409-1.346 2.33a2.982 2.982 0 00.152 1.723c.241.608.716 1.276 1.563 1.958.95.766 1.562 1.558 1.894 2.362.336.812.372 1.603.215 2.324-.248 1.142-.97 2.069-1.663 2.682-.243.214-.611.132-.773-.149a.603.603 0 01.143-.745c.572-.507 1.12-1.236 1.299-2.054a2.6 2.6 0 00-.15-1.586c-.24-.578-.715-1.23-1.567-1.916-.954-.77-1.566-1.584-1.898-2.42a4.23 4.23 0 01-.213-2.427z" fill="#303030"/></symbol><symbol fill="none" viewBox="0 0 24 24" id="instagram--white" xmlns="http://www.w3.org/2000/svg"><g clip-path="url(#bbclip0)" fill="#fff"><path d="M23.977 7.056c-.057-1.275-.263-2.152-.558-2.912a5.857 5.857 0 00-1.388-2.128A5.905 5.905 0 0019.907.633C19.143.338 18.27.13 16.995.075 15.711.015 15.303 0 12.046 0 8.785 0 8.377.014 7.097.07c-1.274.057-2.151.263-2.91.558a5.856 5.856 0 00-2.129 1.388A5.909 5.909 0 00.675 4.14C.38 4.904.173 5.776.117 7.05.057 8.336.042 8.744.042 12.002c0 3.259.014 3.667.07 4.947.057 1.275.263 2.151.559 2.911a5.919 5.919 0 001.387 2.129 5.9 5.9 0 002.124 1.383c.764.295 1.636.501 2.912.558 1.28.056 1.687.07 4.946.07 3.258 0 3.666-.014 4.946-.07 1.275-.057 2.152-.263 2.912-.558a6.139 6.139 0 003.511-3.512c.296-.764.502-1.636.558-2.911.056-1.28.07-1.688.07-4.947 0-3.258-.004-3.666-.06-4.946zm-2.162 9.799c-.051 1.172-.248 1.805-.412 2.227a3.98 3.98 0 01-2.279 2.278c-.422.165-1.06.361-2.227.413-1.266.056-1.645.07-4.848.07-3.202 0-3.586-.014-4.848-.07-1.172-.052-1.805-.248-2.227-.413a3.693 3.693 0 01-1.378-.895 3.73 3.73 0 01-.896-1.378c-.164-.422-.36-1.06-.412-2.227-.056-1.266-.07-1.646-.07-4.848 0-3.203.014-3.587.07-4.848.052-1.172.248-1.805.412-2.227a3.68 3.68 0 01.9-1.379 3.726 3.726 0 011.38-.895c.421-.164 1.059-.36 2.226-.413 1.266-.056 1.646-.07 4.848-.07 3.207 0 3.586.014 4.848.07 1.172.052 1.805.249 2.227.413.52.192.994.497 1.378.895.399.39.703.858.896 1.379.164.422.36 1.06.412 2.227.056 1.266.07 1.645.07 4.848 0 3.202-.014 3.577-.07 4.843z"/><path d="M12.044 5.837a6.167 6.167 0 00-6.165 6.165 6.167 6.167 0 006.165 6.166 6.167 6.167 0 006.166-6.166 6.167 6.167 0 00-6.166-6.165zm0 10.165a4 4 0 11.002-8 4 4 0 01-.002 8zm7.849-10.409a1.44 1.44 0 11-2.879 0 1.44 1.44 0 012.879 0z"/></g><defs><clipPath id="bbclip0"><path fill="#fff" d="M0 0h24v24H0z"/></clipPath></defs></symbol><symbol id="location" viewBox="0 0 32 32" xml:space="preserve" xmlns="http://www.w3.org/2000/svg"><style>.bcst0{fill:#b76c4b}</style><path class="bcst0" d="M16 0c6.2 0 11.2 5 11.2 11.2 0 2.1-.6 4.1-1.7 5.9l-8.9 14.4c-.2.3-.5.4-.8.4-.3 0-.6-.2-.8-.5L6.3 17c-1-1.7-1.6-3.7-1.6-5.8C4.8 5 9.8 0 16 0zM7.9 16.1l7.9 13.2L24 16.2c.9-1.5 1.4-3.2 1.4-4.9 0-5.2-4.2-9.4-9.4-9.4s-9.4 4.2-9.4 9.4c0 1.6.5 3.3 1.3 4.8z"/><path class="bcst0" d="M16 5.6c3.1 0 5.6 2.5 5.6 5.6s-2.5 5.6-5.6 5.6c-3.2 0-5.6-2.6-5.6-5.6 0-3.1 2.5-5.6 5.6-5.6zm0 9.4c2.1 0 3.8-1.7 3.8-3.8S18.1 7.4 16 7.4s-3.8 1.7-3.8 3.8c0 2.1 1.7 3.8 3.8 3.8z"/></symbol><symbol fill="none" viewBox="0 0 150 40" id="logo--white" xmlns="http://www.w3.org/2000/svg"><path d="M51.255 0c1.71 0 3.004 1.33 3.004 3.004a3.003 3.003 0 01-3.042 3.042c-1.711 0-3.08-1.331-3.08-3.042C48.137 1.33 49.506 0 51.255 0zm-.038.532c-1.369 0-2.396 1.103-2.396 2.472 0 1.407 1.027 2.471 2.434 2.471 1.33 0 2.357-1.102 2.357-2.471S52.586.532 51.217.532zm-.532 4.145h-.57V1.52a8.338 8.338 0 011.102-.076c.532 0 .798.076.988.228.19.114.305.38.305.684 0 .38-.267.609-.609.723v.038c.266.114.418.342.494.76.077.457.153.647.229.76h-.609c-.076-.113-.152-.38-.266-.798-.076-.342-.266-.494-.722-.494h-.38v1.33h.038zm0-1.787h.38c.418 0 .798-.114.798-.495 0-.304-.19-.532-.76-.532-.228 0-.343 0-.456.038v.989h.038zm-24.221-.419C9.202 2.471 0 9.961 0 23.612V40h52.32V23.612c0-12.966-8.594-21.14-25.856-21.14zM42.89 26.16c0 3.422-1.94 4.828-5.324 4.867l-22.775.152c-3.384.038-5.323-1.37-5.323-4.791v-2.206c0-4.41 2.357-8.136 6.882-10.304l-1.407 3.232 3.802-4.144c.57-.19 1.179-.342 1.787-.457l1.217 3.194 3.384 1.18.76 1.064-.038-2.472-2.433-2.205-1.33-1.027a37.14 37.14 0 014.296-.342c.608 0 1.178 0 1.71.038l.343 2.205-1.559 1.787 3.84-2.357.419-1.33c2.471.418 4.562 1.178 6.235 2.205l-3.612-.343-1.71.609-2.434 3.004 3.65-1.788 5.665-.342c2.624 2.168 3.917 5.133 3.917 8.365v2.206h.038z" fill="#B76C4B"/><path d="M16.996 16.198l-.608.228 1.597.418 2.547 1.293 1.103.228-2.814-2.167h-1.825zm16.388 2.052l3.46-1.14-4.829.76 1.369.38zm-9.087 1.712l2.661.076 1.179-1.407.266-.874-1.293 1.064-2.813 1.14z" fill="#B76C4B"/><path d="M73.232 26.958h5.323c3.004 0 4.905 1.369 4.905 4.22 0 2.814-1.901 4.183-4.905 4.183H75.97v3.004h-2.738V26.958zm7.49 4.22c0-1.292-.722-1.824-2.205-1.824h-2.585v3.612h2.623c1.445 0 2.167-.57 2.167-1.787zm10.038 4.906h-4.562l-.837 2.281h-2.89l4.487-11.407h3.004l4.487 11.407h-2.89l-.799-2.281zm-3.802-2.206h3.004l-1.483-4.03-1.52 4.03zm29.012 4.487h-2.13V26.958h2.7v6.92l5.475-6.92h2.13v11.407h-2.7v-6.654l-5.475 6.654zm18.441-4.297h-5.019v4.297h-2.7V26.958h2.7v4.715h5.019v-4.715h2.699v11.407h-2.699v-4.297zm11.635 2.016h-4.563l-.836 2.281h-2.89l4.487-11.407h3.003l4.487 11.407h-2.89l-.798-2.281zm-3.764-2.206h2.965l-1.483-4.03-1.482 4.03zm-33.232-.608c1.749-1.065 2.357-3.042 2.357-6.35h-2.7c0 4.03-.76 4.715-2.775 4.715h-1.141V26.92h-2.814v4.715h-1.14c-2.016 0-2.776-.684-2.776-4.715h-2.7c0 3.308.609 5.247 2.358 6.35l-3.194 5.057 3.118.076 2.623-4.41h1.711v4.296h2.814v-4.297h1.711l2.624 4.411 3.118-.076-3.194-5.057zM60.19 22.89h2.7v-9.05h5.019v9.05h2.7V11.483H60.19V22.89zm12.358 0H81.9v-2.396h-6.654v-2.281h5.21v-2.13h-5.21V13.84H81.9v-2.357h-9.353V22.89zm39.962-11.407h-5.285V22.89h2.699v-3.004h2.586c3.004 0 4.905-1.369 4.905-4.183 0-2.89-1.901-4.22-4.905-4.22zm0 5.97h-2.586V13.84h2.586c1.483 0 2.205.533 2.205 1.825 0 1.217-.722 1.788-2.205 1.788zm13.65-1.255h-5.019v-4.715h-2.7V22.89h2.7v-4.297h5.019v4.297h2.699V11.483h-2.699v4.715zm10.19-4.715c-3.118 0-4.677 1.369-4.677 3.84 0 1.56.571 2.7 1.939 3.308l-.874 1.673c-.228.456-.494.57-.951.57-.456 0-.912-.228-.912-.228l-.723 1.711s.837.609 2.244.609c1.749 0 2.357-.76 3.003-2.053l.837-1.75h2.091v3.689h2.7V11.445h-4.677v.038zm2.015 5.437h-1.863c-1.483 0-2.167-.532-2.167-1.597 0-.988.57-1.483 1.749-1.483h2.281v3.08zm-35.133 5.894h2.89l-4.487-11.407h-3.004l-3.194 8.099-.038.114c-.152.304-.646 1.178-1.9 1.178-.8 0-1.332-.57-1.598-.95l-.19-.342-1.102-1.75c1.749-1.064 2.357-3.041 2.357-6.35h-2.7c0 4.031-.76 4.716-2.775 4.716H86.16v-4.715h-2.7v11.407h2.7v-4.297h1.825l1.217 2.053c.494.95 1.407 2.396 4.296 2.396 2.89 0 4.03-1.94 4.373-2.738h4.372l.989 2.586zm-4.449-4.981l1.331-3.574 1.293 3.574h-2.624zm-27.11 18.213h-1.255v-9.05h-8.555v4.03c0 3.309-1.445 5.02-1.445 5.02h-1.254v3.802h2.167V38.44h8.175v1.407h2.167v-3.802zM64.26 31.33v-1.977h3.46v6.692h-4.335s.875-1.711.875-4.715z" fill="#fff"/></symbol><symbol id="money" viewBox="0 0 40 40" xml:space="preserve" xmlns="http://www.w3.org/2000/svg"><style>.best1{fill:#b76c4b}</style><defs><path id="beSVGID_1_" d="M0 0h40v39.4H0z"/></defs><clipPath id="beSVGID_2_"><use xlink:href="#beSVGID_1_" overflow="visible"/></clipPath><g clip-path="url(#beSVGID_2_)"><path class="best1" d="M6.6 35c-.1-.1-.3-.2-.6-.2-.2 0-.4.1-.6.2-.1.1-.2.3-.2.5s.1.4.2.5c.1.1.3.2.6.2.2 0 .4-.1.6-.2.1-.1.2-.3.2-.5s0-.3-.2-.5zm30.1-20.9c-.1-.1-.3-.2-.6-.2-.2 0-.4.1-.6.2-.1.1-.2.3-.2.5s.1.4.2.5c.1.1.3.2.6.2.2 0 .4-.1.6-.2.1-.1.2-.3.2-.5s-.1-.4-.2-.5z"/><path class="best1" d="M39.8.2c-.2-.1-.4-.2-.6-.2H20c-.4 0-.8.3-.8.8V3l-7.4 2c-.4.1-.7.5-.6.9L15.1 20l-3.3 3.3c-.4-.6-1.1-1-1.9-1H2.3c-1.3 0-2.3 1-2.3 2.3v12.6c0 1.3 1.1 2.3 2.3 2.3h7.5c1.1 0 2-.7 2.3-1.8l.9.8c.7.6 1.6 1 2.6 1h23.6c.4 0 .8-.3.8-.8V.8c0-.2-.1-.4-.2-.6zM10.6 37.1c0 .4-.4.8-.8.8H2.3c-.4 0-.8-.3-.8-.8V24.6c0-.4.4-.8.8-.8h3v8.9c0 .4.3.8.8.8.4 0 .8-.3.8-.8v-8.9h3c.4 0 .8.3.8.8v12.5h-.1zM13 6.2l6.2-1.6v2.9l-.5.1c-.2.1-.4.2-.5.4s-.1.4-.1.6c.3 1.1-.4 2.2-1.5 2.5-.2.1-.4.2-.5.4-.1.2-.1.4-.1.6l3 11.1h-1.6l-.6-3.2c0-.1-.1-.2-.1-.3L13 6.2zm6.2 4.8v6.5l-1.4-5.2c.6-.4 1.1-.8 1.4-1.3zm11.2 26.9H15.6c-.6 0-1.1-.2-1.6-.6l-1.9-1.6V25l3.4-3.4.6 2.4c.1.3.4.6.8.6h15.4c.6 0 1.1.5 1.1 1.1s-.5 1.1-1.1 1.1h-7.9c-.4 0-.8.3-.8.8s.3.8.8.8h10.3c.6 0 1.1.5 1.1 1.1s-.5 1.1-1.1 1.1H24.5c-.4 0-.8.3-.8.8 0 .4.3.8.8.8h8.6c.6 0 1.1.5 1.1 1.1 0 .6-.5 1.1-1.1 1.1h-8.6c-.4 0-.8.3-.8.8 0 .4.3.8.8.8h6c.6 0 1.1.5 1.1 1.1-.1.3-.6.8-1.2.8zm8 0h-5.6c.2-.3.2-.7.2-1.1 0-.4-.1-.7-.2-1.1h.2c1.5 0 2.7-1.2 2.7-2.6 0-.4-.1-.8-.3-1.2 1.1-.3 2-1.3 2-2.5 0-.6-.2-1.1-.5-1.6V18c0-.4-.3-.8-.8-.8s-.8.3-.8.8v8.8c-.2 0-.4-.1-.6-.1.2-.3.2-.7.2-1.1 0-1.4-1.2-2.6-2.7-2.6h-1.3c1.3-.6 2.3-1.9 2.3-3.4 0-2-1.7-3.7-3.7-3.7-2.1 0-3.7 1.7-3.7 3.7 0 1.5.9 2.8 2.3 3.4h-4.3V8.5c1.4-.3 2.5-1.4 2.8-2.8h5.9c.3 1.4 1.4 2.5 2.8 2.8v2.4c0 .4.3.8.8.8s.8-.3.8-.8V7.8c0-.4-.3-.8-.8-.8C35 7 34 6.1 34 4.9c0-.4-.3-.8-.8-.8H26c-.4 0-.8.3-.8.8 0 1.1-.9 2.1-2.1 2.1-.4 0-.8.3-.8.8v15.3h-1.5V1.5h17.7v36.4zm-8.8-16c-1.2 0-2.2-1-2.2-2.1 0-1.2 1-2.1 2.2-2.1 1.2 0 2.2 1 2.2 2.1s-1 2.1-2.2 2.1z"/></g></symbol><symbol fill="none" viewBox="0 0 52 52" id="nutrition" xmlns="http://www.w3.org/2000/svg"><path d="M26 0C11.64 0 0 11.64 0 26s11.64 26 26 26 26-11.64 26-26C51.984 11.647 40.353.016 26 0zm0 50.267C12.598 50.267 1.733 39.402 1.733 26S12.598 1.733 26 1.733 50.267 12.598 50.267 26C50.25 39.396 39.396 50.251 26 50.267z" fill="#303030"/><path d="M27.733 40.734a.867.867 0 00-.867.867.867.867 0 01-.866.867.867.867 0 100 1.733 2.6 2.6 0 002.6-2.6.867.867 0 00-.867-.867z" fill="#303030"/><path d="M37.267 32.933a4.339 4.339 0 00-4.334 4.333c.005.238.029.475.072.708l-1.716.664a6.074 6.074 0 00-4.42-3.033v-1.892a4.333 4.333 0 10-1.733 0v1.89a6.074 6.074 0 00-4.42 3.033L19 37.972c.042-.233.064-.47.067-.706a4.36 4.36 0 10-.694 2.327l1.712.663a6.067 6.067 0 1011.823 0l1.712-.663a4.333 4.333 0 103.647-6.66zm-22.534 6.933a2.6 2.6 0 110-5.2 2.6 2.6 0 010 5.2zm8.667-10.4a2.6 2.6 0 115.2 0 2.6 2.6 0 01-5.2 0zM26 45.933a4.333 4.333 0 110-8.667 4.333 4.333 0 010 8.667zm11.267-6.067a2.6 2.6 0 110-5.2 2.6 2.6 0 010 5.2zM17.796 28.345a.867.867 0 000-1.155c-.104-.117-2.587-2.855-5.767-2.855-.173 0-.334.012-.499.026l1.968-1.968a8.168 8.168 0 005.12 2.22c3.18 0 5.663-2.737 5.768-2.853a.867.867 0 000-1.156c-.104-.117-2.588-2.855-5.767-2.855-.174 0-.335.011-.5.026l1.973-1.973a8.166 8.166 0 005.121 2.218c3.18 0 5.663-2.739 5.767-2.86a.867.867 0 000-1.154 10.2 10.2 0 00-3.191-2.28c2.134-2.257 1.96-5.831 1.95-5.985a.867.867 0 00-.814-.815c-.152-.006-3.727-.184-5.985 1.952a10.194 10.194 0 00-2.28-3.192.867.867 0 00-1.154 0c-.117.105-2.86 2.588-2.86 5.767a8.16 8.16 0 002.216 5.119L16.9 16.544c.014-.164.025-.328.025-.496 0-3.18-2.738-5.662-2.855-5.766a.867.867 0 00-1.154 0c-.116.104-2.855 2.587-2.855 5.766a8.16 8.16 0 002.216 5.119l-1.966 1.967c.014-.164.026-.328.026-.496 0-3.18-2.739-5.663-2.856-5.767a.867.867 0 00-1.154 0c-.122.104-2.86 2.588-2.86 5.767a8.165 8.165 0 002.217 5.119l-.867.867a.867.867 0 101.225 1.225l.867-.866a8.168 8.168 0 005.12 2.217c3.18 0 5.663-2.738 5.767-2.855zm4.689-7.165a6.353 6.353 0 01-3.866 1.7 6.396 6.396 0 01-3.877-1.7 6.367 6.367 0 013.877-1.698 6.386 6.386 0 013.866 1.698zm2.728-4.897a6.397 6.397 0 01-3.876-1.7 6.398 6.398 0 013.876-1.698 6.385 6.385 0 013.864 1.699 6.382 6.382 0 01-3.864 1.7zm-1.161-8.076a6.37 6.37 0 013.941-1.528 6.341 6.341 0 01-1.53 3.936 3.95 3.95 0 01-.727.564 5.802 5.802 0 00-.52-.027 6.203 6.203 0 00-2.076.375 6.24 6.24 0 00.375-2.073 5.66 5.66 0 00-.027-.52 4.01 4.01 0 01.564-.727zM20.083 5.59a6.382 6.382 0 011.7 3.864 6.395 6.395 0 01-1.7 3.875 6.395 6.395 0 01-1.7-3.875 6.383 6.383 0 011.7-3.864zm-6.592 6.592a6.346 6.346 0 011.697 3.866 6.395 6.395 0 01-1.7 3.875 6.395 6.395 0 01-1.698-3.875 6.386 6.386 0 011.7-3.866zm-6.587 6.592a6.382 6.382 0 011.695 3.864 6.394 6.394 0 01-1.7 3.874A6.394 6.394 0 015.2 22.639a6.382 6.382 0 011.7-3.864h.004zm5.13 7.295a6.385 6.385 0 013.864 1.698 6.382 6.382 0 01-3.869 1.7 6.397 6.397 0 01-3.875-1.7 6.397 6.397 0 013.875-1.698h.005z" fill="#303030"/><path d="M32.48 12.261a.867.867 0 00-.286 1.191v.006a12.057 12.057 0 011.442 7.754c-.063.458-.173.895-.352 1.664a7.32 7.32 0 00-.212 1.856 6.881 6.881 0 008.753 6.211 6.376 6.376 0 004.31-3.676c1.333-3.08.442-6.78-.728-9.013-3.33-6.364-12.187-6.448-12.927-5.993zm11.397 6.798c1.07 2.043 1.693 5.16.672 7.519a4.635 4.635 0 01-3.183 2.695 5.147 5.147 0 01-6.559-4.603 5.695 5.695 0 01.173-1.42c.166-.715.3-1.24.378-1.8a14.32 14.32 0 00-.993-7.578c3.924.209 7.734 1.796 9.512 5.187z" fill="#303030"/><path d="M40.703 27.625c.08 0 .161-.011.239-.033a3.151 3.151 0 002.272-2.54 7.676 7.676 0 00-.216-3.537.867.867 0 10-1.667.475c.27.88.334 1.81.183 2.717a1.434 1.434 0 01-1.05 1.218.867.867 0 00.24 1.7z" fill="#303030"/></symbol><symbol id="online-payment" viewBox="0 0 40 40" xml:space="preserve" xmlns="http://www.w3.org/2000/svg"><style>.bgst0{fill:#b76c4b}</style><path class="bgst0" d="M20.6 22.5c.5 0 1-.1 1.4-.4.4-.3.7-.7.9-1.1.2-.5.2-1 .1-1.4-.1-.5-.3-.9-.7-1.3-.3-.3-.8-.6-1.3-.7-.5-.1-1 0-1.4.1-.5.2-.8.5-1.1.9-.3.4-.4.9-.4 1.4 0 .7.3 1.3.7 1.8.5.4 1.2.7 1.8.7zm0-3.7c.2 0 .5.1.7.2.2.1.4.3.5.6.1.2.1.5.1.7 0 .2-.2.5-.3.6-.2.2-.4.3-.6.3-.2 0-.5 0-.7-.1-.2-.1-.4-.3-.6-.5-.1-.2-.2-.4-.2-.7 0-.3.1-.6.4-.9.1-.1.4-.2.7-.2z"/><path class="bgst0" d="M33.1 17.5h-1.2V3.1c0-.7-.3-1.3-.7-1.8-.5-.5-1.1-.7-1.8-.7H10.6c-.7 0-1.3.3-1.8.7-.4.5-.7 1.2-.7 1.8v6.4c-.6.5-1.1 1.2-1.4 1.9-.3.7-.5 1.5-.5 2.3s.2 1.6.5 2.3c.3.7.8 1.4 1.4 1.9v18.9c0 .7.3 1.3.7 1.8.5.5 1.1.7 1.8.7h18.8c.7 0 1.3-.3 1.8-.7.5-.5.7-1.1.7-1.8V30h1.2c.2 0 .3-.1.4-.2.1-.1.2-.3.2-.4V18.1c0-.2-.1-.3-.2-.4-.1-.1-.2-.2-.4-.2zM24.2 1.9l-.3 1.2h-7.8l-.4-1.2h8.5zM7.5 13.8c0-.9.3-1.7.7-2.4.5-.7 1.2-1.3 2-1.6.8-.3 1.7-.4 2.5-.2s1.6.6 2.2 1.2c.6.6 1 1.4 1.2 2.2.2.8.1 1.7-.2 2.5-.3.8-.9 1.5-1.6 2-.7.5-1.6.7-2.4.7-1.2 0-2.3-.5-3.1-1.3s-1.3-2-1.3-3.1zm21.3 4.3V22c-.8.1-1.5.5-2 1-.6.6-.9 1.3-1 2H15.6c-.1-.8-.5-1.5-1-2-.6-.6-1.3-.9-2-1v-2.6c1.2-.1 2.2-.6 3.1-1.4.9-.8 1.5-1.8 1.7-2.9h8.3c.1.8.5 1.5 1 2 .6.5 1.3.8 2.1 1zM27 15h1.8v1.8c-.4-.1-.8-.3-1.1-.7-.4-.3-.6-.7-.7-1.1zm1.8 8.2V25H27c.1-.4.3-.8.7-1.1.2-.4.6-.6 1.1-.7zM14.3 25h-1.8v-1.8c.4.1.8.3 1.1.7.4.3.6.7.7 1.1zm16.3 11.9c0 .3-.1.6-.4.9-.2.2-.6.4-.9.4H10.6c-.3 0-.6-.1-.9-.4-.2-.2-.4-.6-.4-.9V18.8c.6.3 1.2.5 1.9.6v6.3c0 .2.1.3.2.4.1.1.3.2.4.2H13v1.2c0 .2.1.3.2.4.1.1.3.2.4.2H15v1.2c0 .2.1.3.2.4.1.1.3.2.4.2h15v7zm0-8.1H16.2v-.6h14.4v.6zm0-1.9H14.4v-.6h15c.2 0 .3-.1.4-.2.1-.1.2-.3.2-.4v-8.8h.6v10zm0-11.3H30v-1.2c0-.2-.1-.3-.2-.4-.1-.1-.3-.2-.4-.2H17.5c0-1-.2-1.9-.7-2.7-.5-.8-1.1-1.5-2-2-.8-.5-1.7-.8-2.7-.8s-1.9.2-2.8.6V3.1c0-.3.1-.6.4-.9.3-.2.6-.3.9-.3h3.8l.6 2c0 .1.1.2.2.3.1.1.2.1.4.1h8.8c.1 0 .3 0 .4-.1s.1-.2.2-.3l.5-2h3.9c.3 0 .6.1.9.4.2.2.4.6.4.9v12.4zm1.9 13.2h-.6v-10h.6v10z"/><path class="bgst0" d="M11.9 16.3c.3 0 .6-.3.6-.6s-.3-.7-.6-.7-.6.3-.6.6.2.7.6.7zm1.6-2.5c-.5-.4-1.1-.6-1.7-.6s-1.2.2-1.7.6c-.1.1-.1.1-.1.2s-.1.2-.1.2v.2c0 .1.1.1.1.2.1.1.1.1.2.1s.2.1.2.1h.2c.1 0 .1-.1.2-.1.2-.2.5-.3.8-.3.3 0 .6.1.8.3.1.1.1.1.2.1h.2s.2 0 .2-.1c.1 0 .1-.1.2-.1.1-.1.1-.1.1-.2v-.2c0-.1 0-.2-.1-.2.5-.1.4-.2.3-.2z"/><path class="bgst0" d="M9.8 13.3c.6-.5 1.3-.8 2.1-.8s1.5.3 2.1.8c.1.1.1.1.2.1h.2c.1 0 .2 0 .2-.1.1 0 .1-.1.2-.1.1-.1.1-.1.1-.2v-.2c0-.1 0-.2-.1-.2 0-.1-.1-.1-.1-.2-.8-.7-1.8-1.1-2.9-1.1-1.1 0-2.1.4-2.9 1.1-.1.1-.1.1-.1.2s-.1.2-.1.2v.2c0 .1.1.1.1.2.2.1.2.2.3.2.1 0 .2.1.2.1h.2c.2-.1.2-.1.3-.2z"/></symbol><symbol fill="none" viewBox="0 0 52 52" id="original" xmlns="http://www.w3.org/2000/svg"><path d="M42.148 3H11.104A4.109 4.109 0 007 7.104V44.79a4.109 4.109 0 004.104 4.104h31.044c1.379 0 2.5-1.121 2.5-2.5V5.5c0-1.378-1.121-2.5-2.5-2.5zM8.793 44.791a2.314 2.314 0 012.31-2.31H39.27v4.621H11.104a2.314 2.314 0 01-2.311-2.31zm34.063 1.604c0 .39-.318.707-.708.707h-1.085V42.48h1.085c.246 0 .483-.035.708-.101v4.016zm0-6.415a.71.71 0 01-.708.708h-29.77V26.774a.896.896 0 00-1.792 0V40.72a4.08 4.08 0 00-1.793.68V7.105c0-1.096.767-2.016 1.793-2.252v13.854a.896.896 0 101.792 0V4.793h29.77c.39 0 .708.317.708.707v34.48z" fill="#303030"/><path d="M33.973 12.668c-.678 0-1.344.129-1.966.377a5.302 5.302 0 00-4.39-2.333 5.302 5.302 0 00-4.391 2.333 5.303 5.303 0 00-7.262 4.92 5.264 5.264 0 003.422 4.957v10.46c0 .764.622 1.386 1.386 1.386h13.69c.764 0 1.385-.621 1.385-1.385V22.922a5.264 5.264 0 003.423-4.957 5.303 5.303 0 00-5.297-5.297zM21.179 32.975v-1.793h12.875v1.793H21.18zm13.573-11.593a.896.896 0 00-.698.874v7.134H21.18v-7.134a.896.896 0 00-.698-.874 3.484 3.484 0 01-2.725-3.417 3.508 3.508 0 015.359-2.973.896.896 0 001.295-.398 3.508 3.508 0 013.207-2.089c1.386 0 2.645.82 3.206 2.09a.897.897 0 001.295.396 3.508 3.508 0 015.359 2.973 3.484 3.484 0 01-2.725 3.418zm-23.27.462a.897.897 0 10.896.896.896.896 0 00-.896-.896z" fill="#303030"/></symbol><symbol viewBox="0 0 79 78" id="play" xmlns="http://www.w3.org/2000/svg"><ellipse cx="39.5" cy="39" rx="39.5" ry="39" fill="#b76c4b"/><path d="M59 39L29 56.3V21.7L59 39z" fill="#fff"/></symbol><symbol fill="none" viewBox="0 0 52 52" id="quality" xmlns="http://www.w3.org/2000/svg"><path d="M30.409 7.773a.937.937 0 10-.44 1.823A16.818 16.818 0 0142.875 26c0 9.304-7.57 16.874-16.875 16.874S9.125 35.304 9.125 26A16.818 16.818 0 0122.03 9.596a.938.938 0 00-.44-1.823 18.84 18.84 0 00-10.255 6.543A18.552 18.552 0 007.25 26c0 10.338 8.412 18.75 18.75 18.75 10.339 0 18.75-8.412 18.75-18.75 0-4.294-1.413-8.334-4.086-11.684A18.84 18.84 0 0030.41 7.773z" fill="#303030"/><path d="M49.434 23.745l-1.097-2.047.183-2.53a4.785 4.785 0 00-1.732-4.235l-1.82-1.491-.717-2.157a4.818 4.818 0 00-3.279-3.467l-2.247-.678-1.721-1.99a4.798 4.798 0 00-4.123-1.667l-2.333.232-2.293-1.15a4.783 4.783 0 00-4.51 0l-2.047 1.097-2.53-.183a4.785 4.785 0 00-4.235 1.732l-1.49 1.82-2.158.717a4.819 4.819 0 00-3.466 3.279l-.68 2.247-1.989 1.721a4.797 4.797 0 00-1.667 4.124l.232 2.332-1.15 2.293a4.783 4.783 0 000 4.51l1.097 2.047-.183 2.53a4.786 4.786 0 001.732 4.235l1.82 1.491.717 2.157a4.818 4.818 0 003.28 3.467l2.246.678 1.721 1.99a4.796 4.796 0 004.124 1.667l2.332-.232 2.293 1.15a4.791 4.791 0 004.51 0l2.047-1.097 2.53.183a4.787 4.787 0 004.235-1.732l1.491-1.82 2.157-.717a4.818 4.818 0 003.467-3.279l.678-2.247 1.99-1.721a4.797 4.797 0 001.667-4.123l-.232-2.333 1.15-2.292a4.784 4.784 0 000-4.511zm-1.659 3.636l-.012.023-1.277 2.546a.938.938 0 00-.095.514l.26 2.601a2.925 2.925 0 01-1.023 2.516l-2.2 1.904a.937.937 0 00-.285.438l-.757 2.507a2.938 2.938 0 01-2.141 2.006.944.944 0 00-.083.023l-2.453.814a.937.937 0 00-.43.296L35.614 45.6a2.918 2.918 0 01-2.632 1.052l-2.818-.204a.937.937 0 00-.51.108l-2.285 1.225a2.91 2.91 0 01-2.775-.018l-2.546-1.277a.938.938 0 00-.514-.095l-2.601.26a2.924 2.924 0 01-2.515-1.023l-1.905-2.2a.936.936 0 00-.438-.285l-2.507-.757a2.938 2.938 0 01-2.006-2.141.93.93 0 00-.023-.083l-.814-2.453a.936.936 0 00-.296-.43l-2.031-1.664a2.918 2.918 0 01-1.051-2.632l.203-2.818a.937.937 0 00-.108-.51L4.218 27.37a2.911 2.911 0 01.018-2.775l1.277-2.547a.937.937 0 00.095-.514l-.26-2.601a2.925 2.925 0 011.023-2.515l2.2-1.905a.938.938 0 00.285-.438l.757-2.507a2.938 2.938 0 012.141-2.006.933.933 0 00.083-.023l2.454-.814a.937.937 0 00.43-.296l1.663-2.031a2.919 2.919 0 012.632-1.051l2.818.203a.94.94 0 00.51-.108l2.284-1.225a2.91 2.91 0 012.753.006l.023.012 2.546 1.277c.159.08.337.113.514.095l2.601-.26A2.925 2.925 0 0135.58 6.37l1.905 2.2a.937.937 0 00.438.285l2.507.757a2.939 2.939 0 012.006 2.141.954.954 0 00.023.083l.814 2.453a.937.937 0 00.296.43l2.031 1.664a2.917 2.917 0 011.051 2.632l-.203 2.818a.939.939 0 00.108.51l1.225 2.284a2.91 2.91 0 01-.006 2.753z" fill="#303030"/><path d="M21.931 20.892a.937.937 0 00-.846-.536h-4.953a.937.937 0 00-.938.937v14.19c0 .518.42.938.938.938h4.953a.938.938 0 00.864-.573c.714.1 1.45.303 2.217.515 1.153.32 2.344.65 3.582.65h5.412c1.673 0 3.029-.888 3.626-2.373.292-.724.343-1.476.172-2.105.312-.28.575-.628.774-1.035.403-.824.483-1.75.255-2.531.426-.412.744-.955.91-1.596.155-.6.152-1.19.014-1.702.846-.498 1.415-1.401 1.415-2.42a2.83 2.83 0 00-.875-2.072 2.931 2.931 0 00-2.034-.8H29.79c-.58-.727-.76-1.714-.43-2.508.677-1.63.635-3.01-.136-4.473-.572-1.087-2.112-2.168-3.405-1.984-.782.112-1.348.665-1.514 1.479a5.49 5.49 0 00-.078.798c-.038.739-.09 1.751-.728 2.973-.433.829-.577 1.681-.704 2.433-.183 1.077-.271 1.596-.863 1.795zM17.07 22.23h3.078v12.316H17.07V22.23zm7.573-2.82c.11-.645.222-1.312.518-1.878.827-1.585.897-2.937.939-3.744.011-.216.022-.419.042-.521v-.002c.326.005 1.126.444 1.423 1.007.514.974.53 1.755.064 2.88-.422 1.014-.39 2.19.027 3.237a.937.937 0 00.13 1.865h9.632c.286 0 .549.1.74.283a.955.955 0 01.294.714c0 .503-.46.938-1.006.95l-2.413.052a.938.938 0 00.02 1.875h.02l2.01-.044c.066.186.1.54-.038.946-.118.345-.433.924-1.226.924a.938.938 0 000 1.875c.142 0 .282-.009.418-.026a1.84 1.84 0 01-.188.874c-.172.351-.513.77-1.156.77a.938.938 0 000 1.876c.097 0 .193-.005.288-.013a1.78 1.78 0 01-.142.65c-.146.355-.624 1.177-1.878 1.177h-5.412c-.983 0-2.002-.282-3.081-.58-.859-.238-1.74-.482-2.644-.59V22.79c2.11-.383 2.401-2.092 2.62-3.38zM26 9.125a.937.937 0 000-1.875.937.937 0 100 1.875z" fill="#303030"/></symbol><symbol id="takeaway" viewBox="0 0 32 32" xml:space="preserve" xmlns="http://www.w3.org/2000/svg"><style>.bkst0{fill:#b76c4b}</style><path class="bkst0" d="M2 24c-.1 0-.2 0-.3.1s-.2.2-.2.3l-.5 2v.2c0 .1 0 .1.1.2 0 .1.1.1.2.1 0 .1.1.1.2.1h1.1l.9 3.6c0 .1.1.2.2.3s.2.1.3.1h24c.1 0 .2 0 .3-.1.1-.1.2-.2.2-.3l.9-3.6h1.1c.1 0 .2 0 .2-.1.1 0 .1-.1.2-.1 0-.1.1-.1.1-.2v-.2l-.5-2c0-.1-.1-.2-.2-.3s-.2-.1-.3-.1h-1.6l-.8-3h.4c.1 0 .2 0 .3-.1.1-.1.2-.2.2-.3l.9-3.6h1.1c.1 0 .2 0 .2-.1.1 0 .1-.1.2-.1 0-.1.1-.1.1-.2v-.2l-.5-2c0-.1-.1-.2-.2-.3-.1-.1-.2-.1-.3-.1h-1.6l-.9-3.6c0-.1-.1-.2-.2-.3-.1-.1-.2-.1-.3-.1h-3.5V4.5c0-.9-.4-1.8-1-2.5-.7-.7-1.5-1-2.5-1h-8c-.9 0-1.8.4-2.5 1-.7.7-1 1.5-1 2.5V10H5c-.1 0-.2 0-.3.1-.1.1-.2.2-.2.3L3.6 14H2c-.1 0-.2 0-.3.1-.1.1-.2.2-.2.3l-.5 2v.2c0 .1 0 .1.1.2 0 .1.1.1.2.1 0 .1.1.1.2.1h1.1l.9 3.6c0 .1.1.2.2.3s.2.1.3.1h.4l-.8 3H2zm.4 1H7v1H2.1l.3-1zM24 30H8V11h16v19zM3.6 27H7v3H4.4l-.8-3zm24 3H25v-3h3.4l-.8 3zm2.3-4H25v-1h4.6l.3 1zm-2.5-2H25v-3h1.6l.8 3zm.2-4H25v-3h3.4l-.8 3zm2.3-4H25v-1h4.6l.3 1zm-2.5-2H25v-3h1.6l.8 3zM9.5 4.5c0-.7.3-1.3.7-1.8.5-.4 1.1-.7 1.8-.7h8c.7 0 1.3.3 1.8.7.5.5.7 1.1.7 1.8V10h-13V4.5zM5.4 11H7v3H4.6l.8-3zm-3 4H7v1H2.1l.3-1zm1.2 2H7v3H4.4l-.8-3zm1.8 4H7v3H4.6l.8-3z"/><path class="bkst0" d="M20 3c-.4 0-.8.2-1.1.4-.3.3-.4.7-.4 1.1 0 .1-.1.3-.1.4-.1 0-.3.1-.4.1s-.3-.1-.4-.1c-.1-.1-.1-.2-.1-.4 0-.4-.2-.8-.4-1.1S16.4 3 16 3s-.8.2-1.1.4c-.3.3-.4.7-.4 1.1 0 .1-.1.3-.1.4-.1 0-.3.1-.4.1s-.3-.1-.4-.1c-.1-.1-.1-.2-.1-.4 0-.4-.2-.8-.4-1.1-.3-.2-.7-.4-1.1-.4s-.8.2-1.1.4c-.3.3-.4.7-.4 1.1v3c0 .4.2.8.4 1.1.3.2.7.4 1.1.4h8c.4 0 .8-.2 1.1-.4.3-.3.4-.7.4-1.1v-3c0-.4-.2-.8-.4-1.1-.3-.2-.7-.4-1.1-.4zm.5 4.5c0 .1-.1.3-.1.4-.1 0-.3.1-.4.1h-8c-.1 0-.3-.1-.4-.1-.1-.1-.1-.2-.1-.4v-3c0-.1.1-.3.1-.4.1 0 .3-.1.4-.1s.3.1.4.1c.1.1.1.2.1.4 0 .4.2.8.4 1.1.3.2.7.4 1.1.4s.8-.2 1.1-.4c.3-.3.4-.7.4-1.1 0-.1.1-.3.1-.4.1 0 .3-.1.4-.1s.3.1.4.1c.1.1.1.2.1.4 0 .4.2.8.4 1.1s.7.4 1.1.4.8-.2 1.1-.4.4-.7.4-1.1c0-.1.1-.3.1-.4.1 0 .3-.1.4-.1s.3.1.4.1c.1.1.1.2.1.4v3zm-4.5 20c1.4 0 2.7-.4 3.9-1.2 1.2-.8 2-1.9 2.6-3.1.5-1.3.7-2.7.4-4s-.9-2.6-1.9-3.6-2.2-1.6-3.6-1.9c-1.4-.3-2.8-.1-4 .4-1.3.5-2.4 1.4-3.1 2.6-.9 1.1-1.3 2.4-1.3 3.8 0 1.9.7 3.6 2.1 4.9 1.3 1.4 3 2.1 4.9 2.1zm0-13c1.2 0 2.3.4 3.3 1 1 .7 1.8 1.6 2.2 2.7.5 1.1.6 2.3.3 3.5-.2 1.2-.8 2.2-1.6 3.1-.8.8-1.9 1.4-3.1 1.6s-2.4.1-3.5-.3-2-1.2-2.7-2.2-1-2.1-1-3.3c0-1.6.6-3.1 1.8-4.2 1.2-1.3 2.7-1.9 4.3-1.9z"/><path class="bkst0" d="M16 25.5c1.1 0 2.1-.3 3-1 .6-.5 1.1-1.1 1.5-1.8.3-.7.5-1.5.5-2.2h-1c0 1-.4 1.9-1 2.6 0-.5-.3-1-.6-1.4-.4-.4-.9-.5-1.4-.5s-1 .2-1.4.6-.6.9-.6 1.4v1.1c-.9-.2-1.6-.7-2.2-1.4-.5-.7-.8-1.6-.8-2.4h-1c0 1.3.5 2.6 1.5 3.5.9 1 2.2 1.5 3.5 1.5zm0-2.2c0-.3.1-.5.3-.7s.4-.3.7-.3.5.1.7.3.3.4.3.7v.7c-.2.1-.3.2-.5.2V23h-1v1.5H16v-1.2zm-3-4.8c0-.1.1-.3.1-.4.1-.1.2-.1.4-.1s.3.1.4.1c.1.1.1.2.1.4v.5h1v-.5c0-.4-.2-.8-.4-1.1-.3-.3-.7-.4-1.1-.4s-.8.2-1.1.4c-.3.3-.4.7-.4 1.1v.5h1v-.5zm5 0c0-.1.1-.3.1-.4.1-.1.2-.1.4-.1s.3.1.4.1c.1.1.1.2.1.4v.5h1v-.5c0-.4-.2-.8-.4-1.1s-.7-.4-1.1-.4-.8.2-1.1.4-.4.7-.4 1.1v.5h1v-.5z"/></symbol><symbol fill="none" viewBox="0 0 40 40" id="vegan" xmlns="http://www.w3.org/2000/svg"><g clip-path="url(#blclip0)"><path d="M39.946 16.078a1.22 1.22 0 00-1.098-1.097c-.326-.031-8.035-.712-12.524 3.778-.974.973-1.704 2.098-2.25 3.266-.9-3.686-2.502-6.745-4.7-8.943-2.71-2.71-6.726-4.512-11.613-5.213-3.637-.522-6.47-.261-6.588-.25A1.22 1.22 0 00.075 8.717c-.011.12-.272 2.951.25 6.588.7 4.888 2.503 8.904 5.213 11.613 2.709 2.71 6.725 4.512 11.613 5.213 1.8.258 3.402.325 4.576.325a23.96 23.96 0 001.964-.071c.161.014.651.05 1.365.05 2.497 0 7.722-.443 11.112-3.832 4.489-4.49 3.809-12.198 3.778-12.525z" fill="#9CC63A"/><path d="M32.487 22.818a1.22 1.22 0 00-1.724 0l-6.693 6.693-10.373-10.373a1.22 1.22 0 00-1.724 1.724L23.139 32.03c.238.238.55.357.863.357l.068-.003.069.003c.312 0 .624-.119.862-.357l7.486-7.486a1.22 1.22 0 000-1.725z" fill="#fff"/><path d="M38.848 14.98c-.326-.03-8.035-.71-12.524 3.779-.974.973-1.704 2.098-2.25 3.266l-.037-.145v10.528c.244.014.591.027 1.019.027 2.497 0 7.722-.443 11.112-3.832 4.489-4.49 3.809-12.199 3.778-12.525a1.22 1.22 0 00-1.098-1.097z" fill="#7EAB5E"/><path d="M30.763 22.818l-6.693 6.693-.033-.033v2.907l.033-.002c.023.001.046.003.07.003.311 0 .623-.119.861-.357l7.486-7.486a1.22 1.22 0 10-1.724-1.725z" fill="#fff"/></g><defs><clipPath id="blclip0"><path fill="#fff" d="M0 0h40v40H0z"/></clipPath></defs></symbol></svg>