<svg width="400" height="400" viewBox="0 0 400 400" fill="none" xmlns="http://www.w3.org/2000/svg">
<path d="M394.17 176.604C392.464 174.897 390.419 173.568 388.128 172.622C386.225 132.544 366.681 95.1709 332.601 66.8111C297.169 37.3262 250.165 21.0879 200.25 21.0879C150.334 21.0879 103.33 37.3262 67.8982 66.8119C33.8174 95.1717 14.2739 132.544 12.3716 172.623C10.0745 173.575 8.03562 174.904 6.32136 176.604C2.58386 180.279 0.461515 185.749 0.500529 191.624C0.516134 224.466 6.61787 257.823 18.6263 290.774C23.2455 303.461 28.762 316.101 35.0198 328.344C39.8809 337.855 45.1868 347.125 50.7969 355.919C55.2055 362.808 61.3306 368.528 68.5091 372.453C75.6876 376.377 83.8025 378.453 91.9875 378.453H308.512C316.698 378.453 324.812 376.377 331.991 372.453C339.169 368.528 345.295 362.808 349.703 355.919C358.77 341.733 371.761 318.762 382.194 289.884C383.653 285.835 381.554 281.356 377.504 279.897C376.646 279.585 375.756 279.428 374.851 279.428C371.574 279.428 368.633 281.496 367.517 284.578C357.576 312.114 345.193 334.001 336.556 347.515C330.415 357.112 319.936 362.847 308.512 362.847H196.481C196.434 362.847 196.379 362.847 196.333 362.847H91.9868C80.5636 362.847 70.0845 357.112 63.9437 347.515C46.0599 319.581 16.0584 262.184 16.1052 191.624C16.1442 189.245 16.7372 188.3 17.3068 187.692C17.7594 187.255 18.5631 186.677 20.4279 186.654H20.4825C22.995 186.654 26.1161 187.996 28.8159 190.235C28.8237 190.235 28.8237 190.243 28.8237 190.243C33.2556 193.942 38.3742 196.548 44.0546 197.984L44.1326 198.007C47.1289 198.74 49.9925 199.115 52.6376 199.115H52.7234C56.0942 199.115 59.504 198.46 62.5861 197.219C65.3951 196.08 67.5876 194.761 69.3588 193.7C70.2483 193.162 71.0208 192.701 71.7543 192.327C74.1029 191.109 75.6166 190.563 78.4256 190.524C79.6819 190.524 82.7717 191.016 82.7717 191.016C86.1191 191.632 88.6472 192.623 91.2455 194.316C93.3366 195.674 100.289 202.361 101.959 203.836C107.608 208.814 114.217 211.818 121.606 212.754L121.762 212.77C123.323 212.949 124.852 213.043 126.311 213.043H126.444C130.782 213.043 135.042 212.138 138.764 210.429C142.205 208.829 148.915 204 149.813 203.461C152.505 201.838 154.471 200.847 158.989 200.777C159.59 200.777 160.206 200.8 160.83 200.847L160.978 200.855C165.114 201.097 167.4 202.025 169.265 202.993C171.247 204 178.184 209.75 179.931 211.053C182.74 213.113 185.526 214.627 188.436 215.688C191.979 216.975 195.927 217.654 200.172 217.685H200.32C205.821 217.654 210.846 216.523 215.246 214.315C219.476 212.177 222.55 209.578 225.015 207.495C226.092 206.59 227.114 205.732 228.074 205.029C231.219 202.767 233.716 201.253 239.505 200.855C239.505 200.855 240.902 200.777 241.495 200.777C244.694 200.793 246.528 201.393 248.041 202.041C249.781 202.767 255.852 207.05 257.178 207.924C260.76 210.296 266.659 213.129 274.173 213.043C275.632 213.043 277.169 212.949 278.729 212.77L278.878 212.754C284.277 212.036 289.17 210.312 293.43 207.628C295.996 206 298.095 204.271 299.935 202.591C300.988 201.631 304.977 197.734 305.977 196.876C309.02 194.246 311.821 192.147 317.72 191.016C317.72 191.016 320.778 190.524 322.066 190.524C324.071 190.54 325.343 190.86 326.638 191.351C327.973 191.835 333.052 194.831 334.16 195.448C338.537 197.882 343.079 199.115 347.659 199.115C350.382 199.131 353.3 198.764 356.359 198.007L356.437 197.984C362.141 196.54 367.275 193.934 371.699 190.22C371.699 190.22 371.699 190.22 371.699 190.212C373.938 188.361 376.456 187.133 378.683 186.768C379.141 186.693 380.071 186.654 380.071 186.654C381.928 186.677 382.74 187.255 383.192 187.684C383.762 188.293 384.355 189.245 384.394 191.624C384.394 200.387 383.926 209.321 382.99 218.185C382.545 222.461 385.658 226.308 389.934 226.76C390.215 226.783 390.488 226.799 390.761 226.799C394.764 226.799 398.096 223.795 398.509 219.816C399.5 210.413 399.999 200.933 399.999 191.624C400.038 185.749 397.915 180.271 394.17 176.604V176.604ZM359.093 180.131C357.444 181.162 355.398 182.121 352.598 182.862C350.811 183.299 349.258 183.51 347.854 183.51C346.036 183.494 344.904 183.197 343.664 182.721C342.478 182.269 337.383 179.265 336.087 178.555C331.601 176.105 326.872 174.872 322.066 174.919H322.042C319.795 174.919 317.4 175.168 314.919 175.66C309.636 176.604 304.822 178.508 300.624 181.317C298.634 182.654 296.932 184.029 295.415 185.377C294.063 186.576 289.42 191.11 288.343 192.015C285.308 194.543 282.702 196.4 276.811 197.282C275.898 197.391 275.008 197.438 274.173 197.438C271.442 197.423 269.804 196.939 268.181 196.221C266.644 195.558 260.542 191.258 258.982 190.252C255.353 187.903 249.353 185.102 241.496 185.172C240.559 185.172 239.584 185.204 238.609 185.274C233.201 185.555 228.254 186.881 223.908 189.206C219.952 191.352 217.018 193.826 214.662 195.815C213.445 196.837 212.391 197.727 211.361 198.453C209.668 199.678 208.279 200.442 206.719 201.02C204.807 201.706 202.747 202.05 200.25 202.081C196.177 202.011 193.961 201.199 192.167 200.333C190.122 199.358 183.272 193.701 181.781 192.554C179.214 190.564 176.413 188.957 173.456 187.763C169.812 186.296 165.911 185.453 161.869 185.274C160.886 185.204 159.91 185.172 158.99 185.172H158.873C154.386 185.172 150.001 186.062 146.193 187.739C142.502 189.386 139.748 191.368 137.532 192.959C136.541 193.677 135.691 194.286 134.871 194.793C132.031 196.533 130.268 197.368 126.312 197.438C125.485 197.438 124.58 197.384 123.635 197.282C119.477 196.681 117.105 195.488 115.333 194.395C113.141 193.061 106.274 186.46 104.854 185.188C99.2363 180.108 92.7444 176.909 85.5737 175.661C83.0846 175.169 80.6736 174.92 78.4264 174.92H78.3328C74.8761 174.92 71.3883 175.559 68.2516 176.777C65.2632 177.955 59.5438 181.388 58.8727 181.739C56.6412 182.91 55.2991 183.463 52.6384 183.51C51.2417 183.51 49.6889 183.3 47.9177 182.863C43.4311 181.684 40.8718 179.937 38.7729 178.22L38.7573 178.204C35.3725 175.413 31.7411 173.413 28.0153 172.247C32.3567 96.9133 107.996 36.6934 200.25 36.6934C292.502 36.6934 368.141 96.9117 372.485 172.245C369.687 173.119 366.944 174.462 364.318 176.258C363.443 176.856 360.086 179.51 359.093 180.131V180.131Z" fill="#DF835B"/>
<path d="M105.837 107.698C90.7782 107.698 78.5271 119.949 78.5271 135.008C78.5271 150.066 90.7782 162.317 105.837 162.317C120.895 162.317 133.146 150.066 133.146 135.008C133.146 119.949 120.895 107.698 105.837 107.698ZM105.837 146.712C99.383 146.712 94.1326 141.461 94.1326 135.008C94.1326 128.554 99.383 123.304 105.837 123.304C112.29 123.304 117.541 128.554 117.541 135.008C117.541 141.461 112.29 146.712 105.837 146.712Z" fill="#DF835B"/>
<path d="M200.25 80.3886C185.191 80.3886 172.94 92.6397 172.94 107.698C172.94 122.757 185.191 135.008 200.25 135.008C215.308 135.008 227.559 122.757 227.559 107.698C227.559 92.6397 215.308 80.3886 200.25 80.3886ZM200.25 119.402C193.796 119.402 188.546 114.152 188.546 107.698C188.546 101.245 193.796 95.9941 200.25 95.9941C206.703 95.9941 211.954 101.245 211.954 107.698C211.954 114.152 206.703 119.402 200.25 119.402Z" fill="#DF835B"/>
<path d="M305.586 107.698C290.528 107.698 278.277 119.949 278.277 135.008C278.277 150.066 290.528 162.317 305.586 162.317C320.645 162.317 332.896 150.066 332.896 135.008C332.896 119.949 320.644 107.698 305.586 107.698ZM305.586 146.712C299.133 146.712 293.882 141.461 293.882 135.008C293.882 128.554 299.133 123.304 305.586 123.304C312.04 123.304 317.291 128.554 317.291 135.008C317.291 141.461 312.04 146.712 305.586 146.712Z" fill="#DF835B"/>
<path d="M57.6047 224.4C53.5395 225.828 51.4016 230.282 52.8295 234.348L83.2601 320.959C84.3876 324.169 87.4018 326.177 90.622 326.177C91.4803 326.177 92.3534 326.034 93.2086 325.734C97.2738 324.305 99.4118 319.851 97.9839 315.785L67.5532 229.175C66.1245 225.11 61.67 222.972 57.6047 224.4Z" fill="#DF835B"/>
<path d="M342.894 224.4C338.829 222.971 334.375 225.11 332.947 229.175L302.516 315.785C301.087 319.851 303.225 324.305 307.291 325.734C308.147 326.034 309.02 326.177 309.878 326.177C313.097 326.177 316.112 324.169 317.24 320.959L347.671 234.348C349.098 230.282 346.96 225.828 342.894 224.4Z" fill="#DF835B"/>
<path d="M127.572 236.624C123.362 237.549 120.7 241.71 121.624 245.919L137.899 320.045C138.7 323.69 141.928 326.176 145.513 326.176C146.067 326.176 146.63 326.116 147.194 325.993C151.403 325.068 154.065 320.907 153.142 316.698L136.867 242.572C135.942 238.364 131.781 235.705 127.572 236.624V236.624Z" fill="#DF835B"/>
<path d="M272.927 236.624C268.72 235.7 264.557 238.364 263.633 242.572L247.358 316.698C246.434 320.908 249.097 325.069 253.306 325.993C253.87 326.117 254.432 326.175 254.986 326.175C258.571 326.175 261.8 323.69 262.6 320.045L278.875 245.919C279.799 241.71 277.137 237.549 272.927 236.624V236.624Z" fill="#DF835B"/>
<path d="M192.447 250.488V320.713C192.447 325.022 195.94 328.515 200.25 328.515C204.559 328.515 208.052 325.022 208.052 320.713V250.488C208.052 246.179 204.559 242.685 200.25 242.685C195.94 242.685 192.447 246.179 192.447 250.488Z" fill="#DF835B"/>
<path d="M384.867 261.396C389.176 261.396 392.67 257.903 392.67 253.594C392.67 249.284 389.176 245.791 384.867 245.791C380.558 245.791 377.064 249.284 377.064 253.594C377.064 257.903 380.558 261.396 384.867 261.396Z" fill="#DF835B"/>
</svg>
