<svg width="59" height="59" viewBox="0 0 59 59" fill="none" xmlns="http://www.w3.org/2000/svg">
<path d="M11.3026 47.9184C11.4398 47.4108 11.6044 46.9032 11.769 46.4094C11.9336 45.9155 12.1257 45.4216 12.304 44.9277C12.6745 43.94 13.086 42.9797 13.5113 42.0056C13.7308 41.5255 13.9503 41.0453 14.1835 40.5789C14.403 40.0987 14.65 39.6323 14.8832 39.1658C15.1164 38.6857 15.3771 38.2329 15.624 37.7665C15.8709 37.3001 16.1316 36.8473 16.3923 36.3809C16.9136 35.4617 17.4623 34.5563 18.0248 33.6646L18.4501 32.9923C18.5873 32.7728 18.7382 32.5533 18.8891 32.3338C19.1909 31.8948 19.479 31.4558 19.7808 31.0305C20.0826 30.5915 20.3844 30.1663 20.7 29.741L21.6466 28.4651C22.3051 27.642 22.9636 26.8051 23.6495 25.9957C24.3355 25.1863 25.0488 24.4044 25.7622 23.6224C26.503 22.8678 27.2301 22.0859 27.9984 21.3588C28.7529 20.618 29.5486 19.9183 30.3443 19.2049C31.1674 18.519 31.9631 17.833 32.8274 17.202C33.0332 17.0373 33.2527 16.8864 33.4585 16.7218C33.678 16.5572 33.8838 16.4063 34.1033 16.2554C34.5423 15.9536 34.9676 15.6517 35.4203 15.3499L35.7495 15.1304L36.0925 14.9246L36.7647 14.4994C37.2174 14.225 37.6565 13.9369 38.1229 13.6762L39.5359 12.9217C40.0024 12.6747 40.4825 12.4415 40.9627 12.222C41.9093 11.7556 42.9108 11.3852 43.8848 11.0148L43.9671 11.1657L42.6089 11.9477C42.3894 12.0848 42.1562 12.2083 41.9367 12.3318L41.2782 12.7433C40.8392 13.0177 40.4002 13.2921 39.9612 13.5802L38.6716 14.4582C38.2326 14.7463 37.8211 15.0618 37.4095 15.3636L36.7784 15.8301L36.4629 16.0633L36.1611 16.3102L34.9401 17.2843C34.7343 17.4489 34.5423 17.6135 34.3365 17.7782L33.7466 18.2858L33.1567 18.7934C32.9646 18.958 32.7725 19.1363 32.5805 19.3147L31.4281 20.3573C30.6873 21.0844 29.919 21.7841 29.2056 22.5386C28.4648 23.2657 27.7652 24.0339 27.0655 24.8022C26.3796 25.5842 25.6799 26.3524 25.0214 27.1481C24.3355 27.9301 23.6907 28.7395 23.0322 29.5489L22.0719 30.7836C21.7563 31.1952 21.4408 31.6205 21.139 32.032C19.9043 33.7057 18.7107 35.4069 17.5858 37.1492C16.4471 38.8914 15.3771 40.6749 14.3481 42.4721C13.8268 43.3775 13.333 44.2829 12.8528 45.2021C12.3726 46.1213 11.8925 47.0541 11.4672 47.987L11.3026 47.9184Z" fill="#B76C4B"/>
<path d="M55.9848 48.3849C55.9711 48.3026 54.8873 39.646 54.6815 38.1506C54.5306 37.0668 54.9422 36.6141 55.3675 36.2437C56.1494 35.5715 56.9863 34.3642 57 33.0061C57 32.3201 56.7805 31.2912 55.6967 30.3309C53.4468 28.3416 50.2229 27.2167 45.682 26.8737C48.3023 22.3328 50.0308 18.0114 50.6893 14.2661C51.4576 9.8761 50.703 6.51498 48.508 4.58063C45.5996 2.00148 40.5786 2.26214 34.3914 5.32144C28.4511 8.24355 22.017 13.4293 16.3099 19.8908C10.5892 26.3661 6.24031 33.3765 4.07274 39.6322C1.80913 46.1487 2.17954 51.1561 5.08793 53.7352C6.41866 54.9013 8.17467 55.4912 10.2874 55.4912C11.9748 55.4912 13.9091 55.1071 16.0218 54.3526C19.9591 52.9395 24.2943 50.3329 28.6706 46.766C28.3688 49.3177 28.1219 51.7734 28.0944 52.9944C28.067 54.1879 28.4099 55.1345 29.1233 55.8205C30.0425 56.6985 31.2635 56.7945 31.7436 56.7945C31.8122 56.7945 31.8534 56.7945 31.8945 56.7945H42.8284L53.7212 56.7396L53.8447 56.6985C56.465 55.9302 56.7119 53.7626 56.4787 52.6651L55.9848 48.3849ZM6.26775 52.4045C3.96299 50.3741 3.78464 45.9292 5.76016 40.2222C7.85914 34.1722 12.0708 27.3676 17.6407 21.0707C23.2105 14.7737 29.4389 9.73891 35.1733 6.91283C40.5923 4.25137 45.0235 3.88096 47.3282 5.91135C50.8128 8.98437 49.3312 17.3254 43.679 26.764C43.24 26.7503 42.7873 26.7503 42.3208 26.7503C42.3071 26.7503 42.2934 26.7503 42.2797 26.7503C38.1229 26.7503 28.7392 28.0947 27.8749 32.0869C27.4496 34.0624 28.3414 35.0364 28.9175 35.6812C29.1508 35.9419 29.3428 36.1614 29.4251 36.3672C29.7407 37.2589 29.727 38.2741 29.7132 38.4661C29.6584 38.8777 29.3154 41.3334 28.9587 44.1732C19.4378 52.4319 10.1365 55.8205 6.26775 52.4045ZM53.4468 54.9562L42.8284 55.0111H31.8534H31.7848C31.7711 55.0111 30.8793 55.0522 30.3306 54.5309C30.0013 54.2154 29.8367 53.7078 29.8504 53.0355C29.919 50.0311 31.4692 38.7817 31.483 38.6582L31.4967 38.5896C31.4967 38.5347 31.5653 37.0943 31.0988 35.7773C30.9068 35.2148 30.5364 34.8307 30.2208 34.474C29.6995 33.9115 29.3703 33.5274 29.6035 32.4573C30.0562 30.3446 36.9431 28.5337 42.266 28.5337C42.2797 28.5337 42.2934 28.5337 42.3071 28.5337C48.2062 28.5337 52.0749 29.5352 54.5032 31.6753C54.9696 32.1006 55.2028 32.5259 55.2028 33.0061C55.2028 33.7057 54.6815 34.4877 54.1876 34.8992C53.5154 35.4892 52.6511 36.4906 52.9118 38.3976C53.1176 39.8792 54.2014 48.5221 54.2151 48.5906L54.6952 52.967L54.709 53.0218C54.7501 53.1727 55.0108 54.4349 53.4468 54.9562Z" fill="#B76C4B"/>
<path d="M38.7814 41.4432C39.3193 41.4432 39.7554 41.0071 39.7554 40.4691C39.7554 39.9312 39.3193 39.4951 38.7814 39.4951C38.2435 39.4951 37.8074 39.9312 37.8074 40.4691C37.8074 41.0071 38.2435 41.4432 38.7814 41.4432Z" fill="#B76C4B"/>
<path d="M46.8755 41.4432C47.4135 41.4432 47.8495 41.0071 47.8495 40.4691C47.8495 39.9312 47.4135 39.4951 46.8755 39.4951C46.3376 39.4951 45.9015 39.9312 45.9015 40.4691C45.9015 41.0071 46.3376 41.4432 46.8755 41.4432Z" fill="#B76C4B"/>
<path d="M49.6604 35.9968C50.1984 35.9968 50.6345 35.5607 50.6345 35.0228C50.6345 34.4848 50.1984 34.0487 49.6604 34.0487C49.1225 34.0487 48.6864 34.4848 48.6864 35.0228C48.6864 35.5607 49.1225 35.9968 49.6604 35.9968Z" fill="#B76C4B"/>
<path d="M42.2385 37.8076C42.7765 37.8076 43.2126 37.3715 43.2126 36.8335C43.2126 36.2956 42.7765 35.8595 42.2385 35.8595C41.7006 35.8595 41.2645 36.2956 41.2645 36.8335C41.2645 37.3715 41.7006 37.8076 42.2385 37.8076Z" fill="#B76C4B"/>
<path d="M44.1866 33.253C44.7246 33.253 45.1606 32.8169 45.1606 32.279C45.1606 31.741 44.7246 31.3049 44.1866 31.3049C43.6487 31.3049 43.2126 31.741 43.2126 32.279C43.2126 32.8169 43.6487 33.253 44.1866 33.253Z" fill="#B76C4B"/>
<path d="M38.6031 34.227C39.141 34.227 39.5771 33.7909 39.5771 33.253C39.5771 32.715 39.141 32.2789 38.6031 32.2789C38.0651 32.2789 37.629 32.715 37.629 33.253C37.629 33.7909 38.0651 34.227 38.6031 34.227Z" fill="#B76C4B"/>
<path d="M35.0361 37.8076C35.5741 37.8076 36.0102 37.3715 36.0102 36.8335C36.0102 36.2956 35.5741 35.8595 35.0361 35.8595C34.4982 35.8595 34.0621 36.2956 34.0621 36.8335C34.0621 37.3715 34.4982 37.8076 35.0361 37.8076Z" fill="#B76C4B"/>
</svg>
