<svg width="59" height="59" viewBox="0 0 59 59" fill="none" xmlns="http://www.w3.org/2000/svg">
<path d="M16.709 25.2363H13.5113C13.2286 25.2363 12.9574 25.3487 12.7576 25.5485L9.5598 28.7463C9.14356 29.1625 9.14356 29.8375 9.5598 30.2538L12.7576 33.4516C12.9574 33.6514 13.2286 33.7638 13.5113 33.7638H19.9068C20.2762 33.7638 20.6193 33.5724 20.8134 33.2582C21.0077 32.9441 21.0253 32.5516 20.8601 32.2212L17.6624 25.8257C17.4818 25.4644 17.1128 25.2363 16.709 25.2363ZM13.9528 31.6318L11.8209 29.5L13.9528 27.3682H16.0503L18.1821 31.6318H13.9528Z" fill="#B76C4B"/>
<path d="M39.0933 43.3569H45.4888C45.7715 43.3569 46.0426 43.2446 46.2425 43.0447L49.4403 39.847C49.8565 39.4307 49.8565 38.7558 49.4403 38.3394L46.2425 35.1417C46.0426 34.9419 45.7715 34.8296 45.4888 34.8296H42.291C41.8873 34.8296 41.5182 35.0577 41.3377 35.4188L38.1399 41.8143C37.9747 42.1448 37.9924 42.5371 38.1866 42.8514C38.3807 43.1656 38.7238 43.3569 39.0933 43.3569ZM42.9498 36.9614H45.0473L47.1791 39.0933L45.0473 41.2251H40.8179L42.9498 36.9614Z" fill="#B76C4B"/>
<path d="M23.1045 17.7749H29.5C29.8695 17.7749 30.2126 17.5836 30.4067 17.2693C30.6009 16.9552 30.6186 16.5627 30.4534 16.2323L27.2556 9.8368C27.0751 9.47567 26.706 9.24756 26.3023 9.24756H23.1045C22.8218 9.24756 22.5507 9.35991 22.3508 9.55977L19.1531 12.7575C18.7368 13.1738 18.7368 13.8487 19.1531 14.265L22.3508 17.4628C22.5507 17.6626 22.8218 17.7749 23.1045 17.7749ZM23.546 11.3794H25.6435L27.7754 15.6431H23.546L21.4142 13.5112L23.546 11.3794Z" fill="#B76C4B"/>
<path d="M19.4301 43.2444L25.8256 46.4421C25.977 46.5179 26.1401 46.5547 26.3019 46.5547C26.5784 46.5547 26.8513 46.4471 27.056 46.2425L30.2537 43.0447C30.4536 42.8448 30.5659 42.5737 30.5659 42.291V39.0933C30.5659 38.5047 30.0887 38.0273 29.5 38.0273H23.1045C22.8218 38.0273 22.5506 38.1397 22.3508 38.3395L19.153 41.5373C18.9107 41.7796 18.7998 42.1236 18.8546 42.4618C18.9095 42.7999 19.1236 43.0912 19.4301 43.2444ZM23.546 40.1592H28.4341V41.8494L26.0917 44.1918L21.7061 41.9991L23.546 40.1592Z" fill="#B76C4B"/>
<path d="M36.6492 30.2538L39.847 27.0561C40.0893 26.8138 40.2002 26.4698 40.1454 26.1316C40.0905 25.7934 39.8764 25.5022 39.5699 25.3489L33.1744 22.1511C32.7639 21.9459 32.2685 22.0264 31.944 22.3508L28.7463 25.5485C28.5464 25.7486 28.4341 26.0197 28.4341 26.3023V29.5001C28.4341 30.0887 28.9113 30.566 29.5 30.566H35.8955C36.1782 30.566 36.4494 30.4537 36.6492 30.2538ZM30.5659 28.4342V26.744L32.9083 24.4016L37.2939 26.5943L35.454 28.4342H30.5659Z" fill="#B76C4B"/>
<path d="M52.0975 43.5702C52.6862 43.5702 53.1634 43.093 53.1634 42.5043C53.1634 41.9156 52.6862 41.4384 52.0975 41.4384C51.5088 41.4384 51.0316 41.9156 51.0316 42.5043C51.0316 43.093 51.5088 43.5702 52.0975 43.5702Z" fill="#B76C4B"/>
<path d="M55.8797 24.6454C55.5759 24.4893 55.2157 24.4881 54.9109 24.6424C54.2199 24.9922 53.1069 25.2364 52.2041 25.2364C49.1947 25.2364 46.5547 22.7459 46.5547 19.9068C46.5547 19.3182 46.0775 18.8408 45.4888 18.8408C42.5501 18.8408 40.1592 16.45 40.1592 13.5113C40.1592 12.9227 39.682 12.4453 39.0933 12.4453C36.2541 12.4453 33.7637 9.80538 33.7637 6.79597C33.7637 5.89399 34.008 4.78075 34.3578 4.08875C34.5119 3.78401 34.5107 3.42383 34.3544 3.12015C34.1982 2.81647 33.9059 2.60617 33.5684 2.55426C32.0504 2.32114 30.7577 2.21252 29.5 2.21252C14.754 2.21252 2.21252 14.8118 2.21252 29.5C2.21252 44.2226 14.7878 56.7875 29.5 56.7875C37.4468 56.7875 44.9428 53.1054 50.1142 47.0987C50.4984 46.6525 50.4481 45.9795 50.0019 45.5954C49.5558 45.2112 48.8827 45.2616 48.4986 45.7077C46.8018 47.6785 44.8427 49.3725 42.6679 50.7538L39.847 47.9328C39.6471 47.733 39.376 47.6206 39.0933 47.6206H35.8955C35.4918 47.6206 35.1226 47.8488 34.9422 48.2099L31.7753 54.5445C31.0177 54.6172 30.2549 54.6557 29.5 54.6557C22.9063 54.6557 16.4621 51.8658 11.6642 46.9704L14.265 44.3697C14.4648 44.1697 14.5772 43.8987 14.5772 43.616V39.0933C14.5772 38.7506 14.4125 38.4289 14.1345 38.2286C13.8565 38.0282 13.499 37.9735 13.1742 38.0822L6.85598 40.1883C5.21148 36.827 4.34436 33.151 4.34436 29.5C4.34436 26.3902 4.94586 23.3464 6.13148 20.4299L6.36204 20.6605C6.5619 20.8603 6.83307 20.9727 7.11575 20.9727H13.5113C13.8807 20.9727 14.2238 20.7813 14.4179 20.4671C14.6121 20.153 14.6298 19.7605 14.4646 19.4301L11.2669 13.0346C11.2047 12.9102 11.1189 12.803 11.0183 12.7141C15.8364 7.44362 22.6143 4.34436 29.5 4.34436C30.2784 4.34436 31.0766 4.39083 31.9495 4.48826C31.7483 5.23589 31.6319 6.05207 31.6319 6.79597C31.6319 10.6612 34.5009 13.9766 38.0931 14.5041C38.5367 17.8259 41.1741 20.4633 44.4959 20.9068C45.0234 24.4992 48.3389 27.3682 52.2041 27.3682C52.9483 27.3682 53.7645 27.2518 54.5118 27.0507C54.6093 27.9235 54.6557 28.7217 54.6557 29.5C54.6557 32.3218 54.1538 35.1171 53.1642 37.8083C52.9611 38.3609 53.2443 38.9735 53.7969 39.1766C54.3492 39.3799 54.962 39.0966 55.1652 38.544C56.2417 35.6166 56.7875 32.5737 56.7875 29.5C56.7875 28.2423 56.6789 26.9496 56.4458 25.4316C56.394 25.0939 56.1835 24.8017 55.8797 24.6454ZM36.5544 49.7525H38.6518L40.7573 51.8581C38.7108 52.9273 36.5672 53.6955 34.3533 54.1545L36.5544 49.7525ZM12.4453 43.1744L10.2329 45.3868C9.36505 44.346 8.5817 43.2433 7.89078 42.0903L12.4453 40.5721V43.1744ZM11.7866 18.8408H7.55725L7.07961 18.3632C7.75924 17.0414 8.56007 15.7728 9.4662 14.5772H9.65476L11.7866 18.8408Z" fill="#B76C4B"/>
</svg>
