<svg width="59" height="59" viewBox="0 0 59 59" fill="none" xmlns="http://www.w3.org/2000/svg">
<path d="M52.1098 20.5132C52.5367 19.5934 52.2212 18.4997 51.3701 17.9486C49.7758 16.9553 48.0153 16.2582 46.1732 15.8909C45.5994 14.8077 44.7342 13.9064 43.6753 13.2888C40.5234 11.2969 35.0901 9.37523 27.0099 11.316C24.1402 8.41167 20.5125 7.96506 16.8072 9.37979C13.1283 10.7909 8.94253 14.4542 6.22905 17.3147C4.4983 19.1286 3.39775 20.3616 3.97953 22.7326C3.02805 24.7514 2.40729 26.91 2.14101 29.1258C1.40952 34.8622 3.5541 40.5903 7.87303 44.4359C9.85311 48.7194 14.6608 50.2894 19.3919 50.2894C20.3103 50.2754 21.2271 50.2064 22.1373 50.083C22.4314 50.2208 22.743 50.3176 23.0634 50.3707C26.1687 50.8392 32.7447 50.0747 33.3374 46.9229C33.6379 45.3163 32.4095 43.6038 29.6019 41.7096C29.7062 40.1068 29.1947 38.5246 28.1716 37.2864C28.7656 36.8574 29.2168 36.2598 29.4667 35.5712C30.9318 35.3644 32.1878 34.4192 32.7921 33.0687C35.5942 33.8559 37.8209 33.5399 39.0813 30.916C41.5308 31.7864 44.5064 31.2895 46.9012 30.2648C49.352 31.6746 52.2963 31.9438 54.9622 31.0018C59.3297 29.2574 55.8727 23.3765 52.1098 20.5132V20.5132ZM3.94574 29.4455C4.184 27.4063 4.74735 25.4184 5.61438 23.5573C8.9411 21.8881 12.8078 21.6602 16.3076 22.9271C23.1502 25.521 27.1122 33.4769 27.7616 34.8679C27.5985 35.368 27.2497 35.7865 26.787 36.037C24.6202 34.7075 22.2892 33.6663 19.8531 32.9399C12.3638 30.4447 6.84737 34.9748 7.00263 40.7488C4.51679 37.5396 3.41624 33.4702 3.94574 29.4455V29.4455ZM18.948 48.4563C16.7195 48.4198 11.3437 47.8618 9.45582 43.5198C6.95971 37.7714 11.8688 32.2028 19.275 34.6734C21.3283 35.306 23.3122 36.1454 25.196 37.1786C27.009 38.292 27.515 39.2537 27.6995 40.5899C26.9854 40.2902 26.1929 40.2318 25.4426 40.4236C22.9337 41.1389 20.9588 43.0777 20.1974 45.573C19.8719 46.5112 19.9479 47.5422 20.4075 48.4225C19.922 48.4611 19.4347 48.4724 18.948 48.4563V48.4563ZM31.5445 46.5868C31.4331 47.1822 30.3472 47.9805 27.6337 48.4326C26.2184 48.6993 24.7701 48.744 23.3411 48.565C22.8135 48.4788 22.3508 48.1641 22.077 47.7049C21.8031 47.2458 21.746 46.6892 21.9209 46.184C22.4785 44.2514 23.9907 42.7414 25.924 42.1864C26.3916 42.0729 26.8853 42.1522 27.2939 42.4065C31.4961 44.8998 31.6094 46.237 31.5445 46.5868ZM29.2612 33.761C25.8984 26.7841 19.6549 20.273 11.8396 20.273C9.71074 20.2948 7.6063 20.729 5.64269 21.5517C5.65822 20.6383 6.32038 19.8693 7.32778 18.8117C13.8297 11.9946 21.8158 6.41241 27.0236 14.2195C31.8021 21.3854 33.8479 32.97 29.2603 33.761H29.2612ZM33.3885 31.3452C34.5704 25.9119 31.6852 17.6545 28.3169 12.8879C35.2937 11.4266 39.9636 13.1007 42.7072 14.8342C43.3258 15.2055 43.8635 15.6975 44.2881 16.2809C41.2443 18.0101 39.1934 21.0726 38.7534 24.5455C38.5698 26.1963 38.2301 27.826 37.7387 29.4126C37.0555 31.3516 36.0774 32.0996 33.3876 31.3452H33.3885ZM39.7142 29.2044C40.0917 27.7572 40.3748 26.287 40.5618 24.8031C40.95 21.7177 42.8502 19.0287 45.6289 17.6326C47.3072 17.9505 48.9127 18.5744 50.3654 19.4729C50.5161 19.5725 50.5334 19.7917 50.2951 19.9424C48.7843 21.0391 47.6448 22.5713 47.029 24.3336C46.3647 25.7159 45.9548 27.2065 45.8189 28.734C43.8952 29.5757 41.7432 29.7415 39.7133 29.2044H39.7142ZM54.2872 29.3058C51.7354 30.3278 49.1297 29.3688 47.6519 28.597C47.8308 27.3559 48.1928 26.1481 48.726 25.0131C49.156 23.7964 49.8772 22.7034 50.8266 21.8293C52.9784 23.3664 55.3202 26.4535 55.174 28.2226C55.1453 28.7383 54.7863 29.1762 54.2863 29.3058H54.2872Z" fill="#B76C4B"/>
<path d="M22.4862 12.5683C21.0505 12.1127 19.4983 12.1925 18.1169 12.7929C16.4313 13.5247 14.8571 14.4902 13.4407 15.6608C13.258 15.8032 13.0753 15.9485 12.8927 16.0964C12.5882 16.34 12.2838 16.5936 11.9794 16.8572C11.6228 17.1921 11.5933 17.7484 11.9126 18.119C12.2318 18.4897 12.7863 18.543 13.1703 18.24C13.4571 17.9922 13.7451 17.7514 14.0343 17.5175C14.207 17.3787 14.3805 17.2436 14.5568 17.1047C15.8327 16.0462 17.249 15.1693 18.7653 14.499C19.728 14.064 20.8137 13.9844 21.8295 14.2743C22.3007 14.4547 22.8288 14.2189 23.0091 13.7478C23.1894 13.2767 22.9537 12.7486 22.4826 12.5683H22.4862Z" fill="#B76C4B"/>
<path d="M49.2466 32.8932C47.4812 32.8932 46.05 34.3244 46.05 36.0898C46.05 37.8553 47.4812 39.2865 49.2466 39.2865C51.0121 39.2865 52.4432 37.8553 52.4432 36.0898C52.4432 34.3244 51.0121 32.8932 49.2466 32.8932ZM49.2466 37.4598C48.49 37.4598 47.8766 36.8464 47.8766 36.0898C47.8766 35.3332 48.49 34.7198 49.2466 34.7198C50.0032 34.7198 50.6166 35.3332 50.6166 36.0898C50.6166 36.8464 50.0032 37.4598 49.2466 37.4598Z" fill="#B76C4B"/>
<path d="M43.31 35.6332C43.8144 35.6332 44.2233 35.2243 44.2233 34.7198C44.2233 34.2154 43.8144 33.8065 43.31 33.8065C42.8056 33.8065 42.3967 34.2154 42.3967 34.7198C42.3967 35.2243 42.8056 35.6332 43.31 35.6332Z" fill="#B76C4B"/>
<path d="M39.6567 36.5466C40.1611 36.5466 40.57 36.1377 40.57 35.6333C40.57 35.1289 40.1611 34.72 39.6567 34.72C39.1523 34.72 38.7434 35.1289 38.7434 35.6333C38.7434 36.1377 39.1523 36.5466 39.6567 36.5466Z" fill="#B76C4B"/>
</svg>
