<?xml version="1.0" encoding="utf-8"?>
<!-- Generator: Adobe Illustrator 21.0.0, SVG Export Plug-In . SVG Version: 6.00 Build 0)  -->
<svg version="1.1" id="Слой_1" xmlns="http://www.w3.org/2000/svg" xmlns:xlink="http://www.w3.org/1999/xlink" x="0px" y="0px"
	 viewBox="0 0 150 40" style="enable-background:new 0 0 150 40;" xml:space="preserve">
<style type="text/css">
	.st0{fill:#B76C4B;}
	.st1{fill:#FFFFFF;}
</style>
<path class="st0" d="M51.3,0c1.7,0,3,1.3,3,3c0,1.7-1.3,3-3,3c-1.7,0-3.1-1.3-3.1-3C48.1,1.3,49.5,0,51.3,0z M51.2,0.5
	c-1.4,0-2.4,1.1-2.4,2.5c0,1.4,1,2.5,2.4,2.5c1.3,0,2.4-1.1,2.4-2.5S52.6,0.5,51.2,0.5z M50.7,4.7h-0.6V1.5c0.3,0,0.6-0.1,1.1-0.1
	c0.5,0,0.8,0.1,1,0.2c0.2,0.1,0.3,0.4,0.3,0.7c0,0.4-0.3,0.6-0.6,0.7v0c0.3,0.1,0.4,0.3,0.5,0.8c0.1,0.5,0.2,0.6,0.2,0.8H52
	c-0.1-0.1-0.2-0.4-0.3-0.8c-0.1-0.3-0.3-0.5-0.7-0.5h-0.4L50.7,4.7L50.7,4.7z M50.7,2.9h0.4c0.4,0,0.8-0.1,0.8-0.5
	c0-0.3-0.2-0.5-0.8-0.5c-0.2,0-0.3,0-0.5,0L50.7,2.9L50.7,2.9z"/>
<path class="st0" d="M26.5,2.5C9.2,2.5,0,10,0,23.6V40h52.3V23.6C52.3,10.6,43.7,2.5,26.5,2.5z M42.9,26.2c0,3.4-1.9,4.8-5.3,4.9
	l-22.8,0.2c-3.4,0-5.3-1.4-5.3-4.8v-2.2c0-4.4,2.4-8.1,6.9-10.3l-1.4,3.2l3.8-4.1c0.6-0.2,1.2-0.3,1.8-0.5l1.2,3.2l3.4,1.2l0.8,1.1
	l0-2.5l-2.4-2.2l-1.3-1c1.3-0.2,2.8-0.3,4.3-0.3c0.6,0,1.2,0,1.7,0l0.3,2.2l-1.6,1.8l3.8-2.4l0.4-1.3c2.5,0.4,4.6,1.2,6.2,2.2
	l-3.6-0.3l-1.7,0.6l-2.4,3l3.7-1.8l5.7-0.3c2.6,2.2,3.9,5.1,3.9,8.4L42.9,26.2L42.9,26.2z"/>
<path class="st0" d="M17,16.2l-0.6,0.2l1.6,0.4l2.5,1.3l1.1,0.2l-2.8-2.2H17z"/>
<path class="st0" d="M33.4,18.3l3.5-1.1L32,17.9L33.4,18.3z"/>
<path class="st0" d="M24.3,20L27,20l1.2-1.4l0.3-0.9l-1.3,1.1L24.3,20z"/>
<path class="st1" d="M73.2,27h5.3c3,0,4.9,1.4,4.9,4.2c0,2.8-1.9,4.2-4.9,4.2H76v3h-2.7V27z M80.7,31.2c0-1.3-0.7-1.8-2.2-1.8h-2.6
	V33h2.6C80,33,80.7,32.4,80.7,31.2z"/>
<path class="st1" d="M90.8,36.1h-4.6l-0.8,2.3h-2.9L87,27h3l4.5,11.4h-2.9L90.8,36.1z M87,33.9h3l-1.5-4L87,33.9z"/>
<path class="st1" d="M116,38.4h-2.1V27h2.7v6.9L122,27h2.1v11.4h-2.7v-6.7L116,38.4z"/>
<path class="st1" d="M134.4,34.1h-5v4.3h-2.7V27h2.7v4.7h5V27h2.7v11.4h-2.7V34.1z"/>
<path class="st1" d="M146,36.1h-4.6l-0.8,2.3h-2.9l4.5-11.4h3l4.5,11.4h-2.9L146,36.1z M142.3,33.9h3l-1.5-4L142.3,33.9z"/>
<path class="st1" d="M109,33.3c1.7-1.1,2.4-3,2.4-6.3h-2.7c0,4-0.8,4.7-2.8,4.7h-1.1v-4.7h-0.1h-2.6H102v4.7h-1.1
	c-2,0-2.8-0.7-2.8-4.7h-2.7c0,3.3,0.6,5.2,2.4,6.3l-3.2,5.1l3.1,0.1l2.6-4.4c0.2,0,0.4,0,0.6,0h1.1v4.3h0.1h2.6h0.1V34h1.1
	c0.2,0,0.5,0,0.6,0l2.6,4.4l3.1-0.1L109,33.3z"/>
<path class="st1" d="M60.2,22.9h2.7v-9h5v9h2.7V11.5H60.2V22.9z"/>
<path class="st1" d="M72.5,22.9h9.4v-2.4h-6.7v-2.3h5.2v-2.1h-5.2v-2.2h6.7v-2.4h-9.4V22.9z"/>
<path class="st1" d="M112.5,11.5h-5.3v11.4h2.7v-3h2.6c3,0,4.9-1.4,4.9-4.2C117.4,12.8,115.5,11.5,112.5,11.5z M112.5,17.5h-2.6
	v-3.6h2.6c1.5,0,2.2,0.5,2.2,1.8C114.7,16.9,114,17.5,112.5,17.5z"/>
<path class="st1" d="M126.2,16.2h-5v-4.7h-2.7v11.4h2.7v-4.3h5v4.3h2.7V11.5h-2.7V16.2z"/>
<path class="st1" d="M136.4,11.5c-3.1,0-4.7,1.4-4.7,3.8c0,1.6,0.6,2.7,1.9,3.3l-0.9,1.7c-0.2,0.5-0.5,0.6-1,0.6
	c-0.5,0-0.9-0.2-0.9-0.2l-0.7,1.7c0,0,0.8,0.6,2.2,0.6c1.7,0,2.4-0.8,3-2.1l0.8-1.7c0.1,0,0.2,0,0.3,0h1.8v3.7h2.7V11.4L136.4,11.5
	L136.4,11.5z M138.4,16.9h-1.9c-1.5,0-2.2-0.5-2.2-1.6c0-1,0.6-1.5,1.7-1.5h2.3V16.9z"/>
<path class="st1" d="M103.2,22.8h2.9l-4.5-11.4h-3l-3.2,8.1l0,0.1c-0.2,0.3-0.6,1.2-1.9,1.2c-0.8,0-1.3-0.6-1.6-1l-0.2-0.3l-1.1-1.7
	c1.7-1.1,2.4-3,2.4-6.3h-2.7c0,4-0.8,4.7-2.8,4.7h-1.3v-4.7h-2.7v11.4h2.7v-4.3h1.2c0.2,0,0.5,0,0.6,0l1.2,2.1
	c0.5,1,1.4,2.4,4.3,2.4s4-1.9,4.4-2.7h4.4L103.2,22.8z M98.8,17.8l1.3-3.6l1.3,3.6H98.8z"/>
<path class="st1" d="M71.7,36h-1.3v-9h-8.6c0,0,0,1.7,0,4c0,3.3-1.4,5-1.4,5h-1.3v2.4v1.4h2.2v-1.4h8.2v1.4h2.2V36z M64.3,31.3
	c0-1.7,0-1.9,0-2h3.5V36h-4.3C63.4,36,64.3,34.3,64.3,31.3z"/>
</svg>
